<?xml version="1.0" standalone="no"?>
<!DOCTYPE svg PUBLIC "-//W3C//DTD SVG 20010904//EN"
 "http://www.w3.org/TR/2001/REC-SVG-20010904/DTD/svg10.dtd">
<svg version="1.0" xmlns="http://www.w3.org/2000/svg"
 width="512.000000pt" height="512.000000pt" viewBox="0 0 512.000000 512.000000"
 preserveAspectRatio="xMidYMid meet">
<metadata>
Created by potrace 1.14, written by Peter Selinger 2001-2017
</metadata>
<g transform="translate(0.000000,512.000000) scale(0.100000,-0.100000)"
fill="#000000" stroke="none">
<path d="M2495 4970 l-50 -49 -54 45 -54 45 -31 -38 c-17 -20 -38 -46 -47 -57
-17 -20 -17 -20 -55 5 -22 14 -51 33 -65 42 l-26 17 -37 -55 c-20 -30 -40 -55
-44 -55 -4 0 -31 14 -61 30 -30 17 -55 30 -57 30 -1 0 -17 -25 -34 -55 l-31
-54 -56 24 c-30 14 -58 23 -62 21 -4 -3 -18 -29 -31 -58 -13 -29 -25 -55 -27
-57 -1 -2 -30 6 -63 18 -34 13 -67 20 -74 18 -7 -3 -20 -32 -31 -66 -20 -68
-12 -65 -115 -35 -24 7 -45 12 -46 11 -1 -1 -11 -34 -23 -73 l-21 -71 -72 14
c-39 7 -73 11 -76 8 -3 -3 -10 -35 -16 -72 l-12 -68 -65 3 -66 4 -6 -39 c-4
-21 -7 -53 -7 -70 l0 -33 -80 0 -80 0 0 -69 0 -68 -37 -7 c-21 -3 -53 -6 -72
-6 l-34 0 7 -84 7 -85 -38 -7 c-114 -20 -108 -16 -104 -60 11 -99 13 -95 -58
-115 -35 -10 -65 -20 -67 -22 -2 -1 5 -32 16 -67 11 -36 16 -67 12 -71 -4 -4
-31 -14 -60 -24 -29 -9 -56 -23 -58 -30 -3 -6 4 -36 15 -66 12 -30 21 -60 21
-67 0 -7 -26 -24 -57 -39 -32 -15 -60 -29 -62 -31 -3 -1 5 -23 17 -47 12 -25
22 -51 22 -59 0 -7 -22 -25 -50 -40 -27 -15 -50 -29 -50 -31 0 -2 16 -31 35
-65 19 -34 35 -66 35 -71 0 -4 -26 -27 -57 -50 -32 -23 -59 -43 -61 -44 -1 -1
16 -30 40 -64 l43 -62 -58 -50 -57 -51 47 -54 46 -55 -51 -52 -52 -52 50 -50
49 -50 -45 -54 -45 -54 38 -31 c20 -17 46 -38 57 -47 20 -17 20 -17 -5 -55
-14 -22 -33 -51 -42 -65 l-17 -26 55 -37 c30 -20 55 -40 55 -44 0 -4 -14 -31
-30 -61 -17 -30 -30 -55 -30 -57 0 -1 25 -16 55 -33 l55 -31 -25 -56 c-14 -31
-23 -59 -21 -63 3 -4 29 -18 58 -31 29 -13 55 -25 57 -27 2 -1 -7 -32 -20 -68
-26 -76 -27 -74 56 -101 28 -9 51 -18 52 -19 2 -1 -6 -33 -16 -71 -11 -38 -19
-69 -18 -70 1 -1 34 -11 73 -23 l71 -21 -14 -72 c-7 -39 -11 -73 -8 -76 3 -3
35 -10 72 -16 l68 -12 -3 -65 -4 -66 39 -6 c21 -4 53 -7 71 -7 l32 0 0 -80 0
-80 69 0 68 0 7 -38 c3 -20 6 -52 6 -71 l0 -34 84 7 85 7 7 -38 c20 -114 16
-108 60 -104 99 11 95 13 115 -58 10 -35 20 -65 22 -67 1 -2 32 5 67 16 36 11
67 16 71 12 4 -4 14 -31 24 -60 9 -29 23 -56 30 -58 6 -3 36 4 66 15 30 12 60
21 67 21 7 0 24 -26 39 -57 15 -32 29 -60 31 -62 1 -3 23 5 47 17 25 12 51 22
59 22 7 0 25 -23 40 -50 15 -28 29 -50 31 -50 2 0 34 17 72 39 l68 38 44 -61
c24 -33 45 -63 47 -64 1 -2 27 15 58 37 30 23 59 41 64 41 4 0 30 -25 56 -55
l47 -55 55 46 55 47 52 -51 52 -52 50 50 50 49 54 -45 55 -45 25 33 c14 18 36
44 47 57 l22 25 38 -25 c22 -14 51 -33 65 -42 l26 -17 37 55 c20 30 40 55 44
55 4 0 31 -14 61 -30 30 -17 55 -30 57 -30 1 0 16 25 33 55 34 60 34 60 111
20 17 -9 34 -14 38 -11 5 3 19 29 32 58 13 29 25 55 27 57 1 2 32 -7 68 -20
76 -26 74 -27 101 56 9 28 18 51 19 52 1 2 33 -6 71 -16 38 -11 69 -19 70 -18
1 1 11 34 23 73 l21 71 72 -14 c39 -7 73 -11 76 -8 3 3 10 35 16 72 l12 68 65
-3 66 -4 6 39 c4 21 7 53 7 71 l0 32 80 0 80 0 0 69 0 68 38 7 c20 3 52 6 71
6 l34 0 -7 84 -7 85 38 7 c114 20 108 16 104 60 -11 99 -13 95 58 115 35 10
65 20 67 22 2 1 -5 32 -16 67 -11 36 -16 67 -12 71 4 3 31 15 61 25 29 10 55
24 58 30 2 6 -5 35 -16 65 -12 30 -21 60 -21 67 0 7 26 24 58 39 31 15 59 29
61 31 3 1 -5 23 -17 47 -12 25 -22 51 -22 59 0 7 23 25 50 40 28 15 50 29 50
31 0 2 -16 31 -35 65 -19 34 -35 66 -35 71 0 4 26 27 58 50 31 23 59 43 60 45
2 1 -15 27 -37 58 -23 30 -41 59 -41 64 0 5 25 31 55 57 l55 47 -47 54 -46 55
51 52 52 52 -50 50 -49 50 45 54 45 54 -38 31 c-20 17 -46 38 -57 47 -20 17
-20 17 5 55 14 22 33 51 42 65 l17 26 -55 37 c-30 20 -55 40 -55 46 0 5 14 32
30 60 17 28 30 53 30 54 0 2 -25 18 -55 35 -60 34 -60 34 -20 111 9 17 14 34
11 38 -3 5 -29 19 -58 32 -29 13 -55 25 -57 27 -2 1 6 30 18 63 13 34 20 67
18 74 -3 7 -32 20 -66 31 -68 20 -65 12 -35 115 7 24 12 45 11 46 -1 1 -34 11
-73 23 l-71 21 14 72 c7 39 11 73 8 76 -3 3 -35 10 -72 16 l-68 12 3 65 4 66
-39 6 c-21 4 -53 7 -70 7 l-33 0 0 80 0 80 -69 0 -68 0 -7 38 c-3 20 -6 52 -6
71 l0 34 -84 -7 -85 -7 -7 38 c-20 114 -16 108 -60 104 -99 -11 -95 -13 -115
58 -10 35 -20 65 -22 67 -1 2 -32 -5 -67 -16 -36 -11 -67 -16 -71 -12 -3 4
-15 31 -25 61 -10 29 -24 55 -30 58 -6 2 -35 -5 -65 -16 -30 -12 -60 -21 -67
-21 -7 0 -24 26 -39 58 -15 31 -29 59 -31 61 -1 3 -23 -5 -47 -17 -25 -12 -51
-22 -59 -22 -7 0 -25 23 -40 50 -15 28 -29 50 -31 50 -2 0 -31 -16 -65 -35
-34 -19 -66 -35 -71 -35 -4 0 -27 26 -50 58 -23 31 -43 58 -44 60 -1 1 -30
-16 -64 -40 l-62 -43 -50 58 -51 57 -54 -47 -55 -46 -52 51 -52 52 -50 -50z
m95 -102 c-16 -16 -34 -28 -38 -28 -4 0 -23 13 -42 29 l-35 29 35 36 34 36 39
-37 38 -38 -31 -27z m-206 60 l37 -33 -36 -35 c-34 -33 -37 -34 -62 -20 -46
27 -50 44 -17 83 16 20 32 36 35 36 3 1 22 -14 43 -31z m436 -52 c0 -6 -17
-22 -36 -34 l-37 -24 -36 37 -36 36 39 36 40 37 33 -39 c18 -21 33 -43 33 -49z
m-643 23 l45 -31 -29 -32 c-15 -17 -29 -33 -30 -35 -3 -5 -54 17 -77 34 -18
14 -18 16 8 55 14 22 29 40 32 40 3 0 26 -14 51 -31z m833 -15 c31 -43 31 -46
13 -59 -10 -8 -30 -19 -45 -26 -25 -10 -30 -8 -58 25 -17 19 -31 38 -31 41 0
8 73 64 83 65 4 0 21 -21 38 -46z m-1036 -25 c20 -12 36 -24 36 -27 0 -4 -10
-20 -23 -36 -22 -28 -23 -28 -60 -13 -41 18 -44 25 -22 67 18 36 23 36 69 9z
m1251 -9 c8 -16 15 -33 15 -38 0 -4 -21 -18 -47 -31 l-47 -23 -23 29 c-13 15
-23 31 -23 35 0 8 81 56 97 57 7 1 19 -12 28 -29z m-735 -9 l34 -29 -34 -28
c-38 -32 -41 -32 -83 -2 l-29 20 33 34 c18 19 35 34 38 34 4 0 22 -13 41 -29z
m230 -39 c0 -6 -28 -28 -52 -42 -13 -8 -25 -3 -54 22 l-36 32 33 27 33 27 38
-31 c21 -17 38 -32 38 -35z m-427 15 l28 -22 -29 -28 c-30 -28 -30 -29 -63
-12 -19 10 -36 19 -38 21 -7 6 51 64 63 64 6 0 24 -10 39 -23z m597 -12 c18
-19 32 -36 29 -38 -25 -18 -61 -37 -72 -37 -7 0 -26 14 -42 30 l-29 31 29 24
c17 13 35 24 41 25 5 0 25 -16 44 -35z m-1080 -55 c-23 -44 -24 -45 -69 -29
-37 13 -37 17 -11 69 l20 40 40 -20 40 -20 -20 -40z m1588 33 l21 -48 -22 -12
c-38 -21 -56 -15 -77 28 -12 23 -20 42 -18 44 7 6 63 34 69 35 4 0 16 -21 27
-47z m-1274 -12 c4 -5 -4 -22 -17 -36 l-23 -27 -43 21 c-40 21 -42 23 -29 44
8 12 18 28 22 34 5 10 16 8 46 -7 21 -11 41 -24 44 -29z m959 12 c27 -31 23
-43 -20 -63 l-42 -19 -21 29 -20 28 33 21 c39 25 50 26 70 4z m-463 -53 c0 -3
-15 -15 -32 -27 -32 -23 -41 -21 -83 11 -20 16 -19 16 13 46 l33 30 34 -27
c19 -16 35 -30 35 -33z m-710 25 c17 -9 30 -18 30 -21 0 -19 -37 -64 -53 -64
-15 0 -53 15 -66 26 -6 5 40 74 50 74 6 0 23 -7 39 -15z m481 -2 c35 -21 35
-23 4 -53 -22 -21 -27 -22 -55 -10 -42 17 -46 28 -19 56 27 29 32 29 70 7z
m391 -10 c35 -34 35 -39 -2 -58 -29 -15 -32 -15 -60 7 -35 28 -36 35 -7 59 29
24 36 24 69 -8z m508 -9 c24 -41 21 -46 -34 -64 -38 -12 -41 -12 -63 14 -32
37 -29 51 15 69 54 22 58 21 82 -19z m-1683 0 c24 -9 43 -20 43 -25 0 -5 -8
-24 -17 -44 -18 -38 -31 -41 -82 -24 -34 12 -35 20 -11 84 11 30 12 30 67 9z
m591 -1 c15 -9 29 -18 31 -20 3 -2 -6 -14 -18 -27 -21 -23 -25 -23 -54 -11
-34 15 -36 28 -10 58 20 21 18 21 51 0z m1392 -8 c27 -70 26 -73 -27 -88 l-48
-14 -22 41 c-12 22 -18 44 -14 48 6 7 79 36 94 37 4 1 12 -10 17 -24z m-631
-56 c-33 -17 -35 -17 -56 4 -30 27 -29 30 10 49 31 16 33 16 56 -9 l23 -26
-33 -18z m-936 31 c20 -8 37 -16 37 -20 0 -3 -12 -17 -25 -32 -21 -25 -27 -27
-52 -18 -15 6 -34 13 -41 15 -9 3 -6 14 10 40 13 19 25 34 28 32 3 -1 22 -9
43 -17z m497 -41 c0 -4 -12 -14 -26 -24 -25 -16 -28 -16 -60 1 l-34 18 26 27
26 28 34 -22 c19 -12 34 -25 34 -28z m638 18 l22 -32 -37 -17 -38 -18 -29 32
-29 31 34 18 c46 24 51 24 77 -14z m-1429 12 c36 -13 37 -17 14 -59 -16 -28
-22 -31 -52 -26 -18 3 -35 7 -37 9 -5 5 30 87 37 87 3 0 20 -5 38 -11z m961
-15 c21 -21 22 -27 10 -35 -42 -27 -47 -28 -78 -6 -17 12 -32 24 -32 27 0 8
53 39 66 40 6 0 21 -11 34 -26z m767 -18 l22 -44 -22 -6 c-41 -11 -52 -6 -71
29 -11 19 -17 36 -15 38 7 5 54 26 60 26 3 1 15 -19 26 -43z m-1157 19 c35
-18 37 -26 11 -49 -17 -16 -21 -16 -55 0 l-36 18 22 23 c26 27 22 27 58 8z
m566 -16 c18 -20 18 -21 -1 -35 -25 -18 -44 -18 -67 3 -18 16 -17 17 9 35 35
22 36 22 59 -3z m-1029 -11 c15 -7 30 -13 31 -14 2 -2 -4 -17 -15 -34 -16 -28
-22 -31 -52 -26 -18 3 -35 7 -38 9 -6 6 29 77 38 77 5 0 21 -5 36 -12z m298 0
c31 -14 31 -19 1 -47 -21 -19 -26 -20 -52 -9 -16 6 -31 13 -32 14 -8 5 34 53
45 54 7 0 24 -5 38 -12z m925 -50 c0 -3 -14 -9 -31 -13 -24 -6 -36 -2 -55 16
l-25 23 33 18 c33 17 33 17 55 -10 13 -15 23 -30 23 -34z m290 30 c11 -18 20
-36 20 -39 0 -4 -19 -12 -42 -18 -40 -10 -44 -9 -65 15 -31 34 -29 39 15 57
51 21 50 21 72 -15z m-1918 10 c21 -6 37 -16 35 -22 -2 -6 -10 -28 -18 -49
-13 -37 -14 -38 -54 -31 -22 3 -44 9 -48 14 -4 4 -3 28 4 54 12 50 19 53 81
34z m2348 -34 c14 -50 8 -62 -37 -65 -13 -1 -28 -2 -35 -3 -7 -1 -20 19 -29
44 l-17 45 32 12 c60 22 72 17 86 -33z m-1162 -10 c2 -1 -9 -9 -24 -17 -25
-13 -32 -13 -56 -1 -34 18 -35 27 -5 47 22 15 27 13 85 -29z m-217 20 c25 -12
28 -18 18 -30 -14 -17 -28 -18 -65 -4 -26 10 -26 11 -9 30 22 24 19 24 56 4z
m-838 -11 c31 -6 34 -21 11 -64 -14 -29 -18 -30 -57 -24 -23 4 -43 8 -45 10
-1 1 6 23 15 49 13 34 22 45 33 41 8 -4 27 -9 43 -12z m417 -14 c0 -4 -8 -17
-18 -29 -16 -19 -24 -22 -55 -16 -20 4 -37 9 -37 12 0 3 9 19 20 34 19 26 22
27 55 17 19 -6 35 -14 35 -18z m263 -21 c-17 -19 -39 -23 -67 -12 -20 8 -20
23 0 45 15 17 18 17 50 2 32 -16 33 -18 17 -35z m525 40 c17 -17 15 -23 -13
-36 -20 -9 -30 -9 -45 0 -26 16 -25 22 3 36 30 14 41 14 55 0z m877 -34 c9
-25 16 -47 14 -49 -2 -2 -24 -6 -49 -10 -45 -7 -46 -6 -63 30 -10 21 -15 40
-12 44 6 5 67 27 86 30 4 1 14 -20 24 -45z m-705 11 l23 -24 -27 -11 c-21 -8
-32 -6 -51 6 -31 20 -31 28 -2 42 31 15 31 15 57 -13z m283 -5 c20 -33 22 -30
-32 -46 -14 -4 -61 32 -61 47 0 7 45 27 65 28 6 1 19 -13 28 -29z m-1524 -16
c2 -1 -7 -19 -19 -39 -19 -31 -26 -36 -49 -30 -36 9 -37 11 -18 51 16 33 20
35 50 29 17 -4 34 -9 36 -11z m381 -13 c0 -5 -9 -16 -20 -26 -16 -14 -26 -16
-51 -9 l-31 9 21 27 c19 24 25 26 51 16 17 -5 30 -13 30 -17z m1433 -8 c14
-35 13 -39 -2 -45 -30 -12 -41 -8 -61 25 -11 17 -20 35 -20 39 0 6 23 13 56
17 7 0 19 -16 27 -36z m-1188 15 c30 -14 32 -24 5 -38 -19 -10 -70 -4 -70 8 0
6 31 42 36 42 2 0 15 -5 29 -12z m176 2 c42 -23 1 -49 -45 -29 -20 9 -23 15
-15 26 14 16 33 17 60 3z m174 -4 c18 -13 18 -14 -4 -25 -22 -12 -61 -7 -61 9
0 8 28 29 41 30 3 0 14 -6 24 -14z m438 -11 c18 -25 18 -25 -9 -35 -23 -9 -31
-7 -51 12 l-24 22 23 13 c32 17 41 16 61 -12z m-268 -1 c17 -13 18 -16 5 -24
-22 -14 -56 -12 -69 4 -10 11 -8 17 6 25 24 14 34 13 58 -5z m-1067 0 c27 -8
28 -22 3 -51 -15 -18 -26 -22 -50 -17 -36 8 -36 7 -14 45 18 30 24 33 61 23z
m1636 -25 c10 -17 16 -32 14 -34 -2 -2 -22 -7 -43 -10 -36 -6 -42 -4 -63 24
l-22 30 32 10 c53 15 63 13 82 -20z m-2169 11 c41 -1 47 -13 33 -64 -13 -47
-13 -48 -48 -42 -19 3 -43 6 -54 6 -16 0 -17 5 -11 48 9 60 12 65 39 58 11 -3
30 -6 41 -6z m929 -10 c15 -15 -37 -40 -67 -32 -26 7 -27 8 -11 30 13 19 22
22 43 17 14 -3 30 -10 35 -15z m1773 -35 c7 -42 7 -55 -2 -55 -7 0 -26 -3 -44
-6 -26 -6 -32 -3 -40 19 -6 14 -11 38 -13 54 -3 23 1 28 27 34 60 13 61 12 72
-46z m-932 25 c17 -18 16 -19 -9 -26 -19 -4 -33 -1 -47 12 -19 17 -19 19 -2
25 29 12 39 10 58 -11z m-1107 -5 c3 -3 -5 -16 -18 -30 -18 -19 -29 -23 -49
-18 -36 8 -36 9 -16 39 14 22 22 25 48 20 17 -3 33 -8 35 -11z m517 1 c18 -13
18 -14 -1 -24 -12 -6 -28 -6 -43 -1 -19 8 -21 12 -11 24 15 19 31 19 55 1z
m162 -2 c5 -14 -22 -25 -42 -18 -12 5 -13 9 -4 21 14 16 40 14 46 -3z m173
-13 c0 -15 -36 -19 -61 -5 l-24 13 25 9 c25 10 60 0 60 -17z m525 3 c19 -29 9
-44 -30 -44 -17 0 -50 35 -47 50 1 4 33 16 53 19 4 1 14 -11 24 -25z m-1868 3
c2 -2 -3 -21 -11 -43 -13 -38 -15 -39 -56 -37 -23 1 -44 3 -45 5 -2 2 2 23 8
47 l12 43 44 -6 c24 -3 46 -8 48 -9z m2401 -29 c6 -23 10 -43 9 -45 -2 -1 -21
-5 -43 -9 -41 -6 -41 -6 -57 35 -10 23 -17 43 -17 45 0 7 32 14 66 15 29 1 32
-2 42 -41z m-1558 22 c13 -9 13 -11 0 -20 -18 -12 -70 -13 -70 -2 0 27 42 40
70 22z m651 0 c10 -6 19 -15 19 -19 0 -16 -43 -20 -62 -6 -19 13 -19 13 -1 24
23 13 21 13 44 1z m-1373 -15 c1 -1 -5 -18 -13 -38 -12 -30 -21 -37 -43 -37
-47 0 -56 12 -38 54 15 36 17 37 53 30 21 -4 39 -8 41 -9z m457 9 c14 -6 14
-8 -1 -25 -9 -11 -30 -19 -46 -19 -32 0 -33 2 -16 30 13 20 34 25 63 14z
m1181 -15 c16 -17 16 -22 4 -29 -21 -14 -31 -12 -52 7 -28 25 -23 33 23 42 3
0 14 -8 25 -20z m513 -15 c7 -19 11 -38 8 -41 -3 -2 -23 -7 -44 -10 -35 -5
-40 -2 -51 21 -18 39 -15 54 11 59 55 11 63 8 76 -29z m-1182 9 c5 -15 -21
-23 -38 -12 -12 8 -12 10 1 19 17 11 32 8 37 -7z m152 3 c15 -18 -6 -27 -33
-14 -15 8 -16 12 -5 19 19 12 25 11 38 -5z m-1022 -10 c1 -1 -7 -16 -17 -34
-19 -31 -52 -43 -65 -22 -3 5 1 23 10 40 13 26 20 29 43 24 15 -4 28 -8 29 -8z
m463 -5 c0 -14 -42 -32 -61 -26 -19 6 -19 8 -4 24 14 17 65 18 65 2z m251 9
c5 0 9 -4 9 -9 0 -13 -34 -23 -54 -15 -13 5 -14 9 -5 21 7 7 19 11 26 8 8 -3
19 -5 24 -5z m1212 -25 c9 -19 13 -35 8 -35 -5 0 -16 -3 -25 -6 -10 -4 -22 5
-35 28 -19 31 -20 33 -3 40 31 12 38 9 55 -27z m-738 16 c3 -5 1 -12 -5 -16
-13 -8 -50 3 -50 16 0 12 47 12 55 0z m253 -3 c18 -18 14 -28 -12 -28 -25 0
-51 22 -39 33 10 11 38 8 51 -5z m-1354 -7 c17 -7 17 -9 -5 -35 -20 -22 -30
-26 -51 -21 -26 7 -26 7 -10 36 17 29 32 34 66 20z m1745 -17 c14 -31 15 -30
-25 -38 -27 -6 -35 -3 -54 21 l-22 28 29 6 c50 12 60 9 72 -17z m-1290 7 c11
-7 10 -11 -4 -19 -19 -10 -55 -5 -55 8 0 17 38 24 59 11z m406 -1 c4 -6 -5
-10 -20 -10 -15 0 -24 4 -20 10 3 6 12 10 20 10 8 0 17 -4 20 -10z m405 -5
c17 -21 -11 -31 -41 -14 -23 12 -23 12 -4 20 29 11 31 11 45 -6z m-1150 -4 c0
-5 -8 -19 -18 -31 -13 -17 -24 -20 -45 -15 -31 8 -31 9 -15 35 13 20 78 30 78
11z m585 -1 c-3 -5 -13 -10 -21 -10 -8 0 -14 5 -14 10 0 6 9 10 21 10 11 0 17
-4 14 -10z m315 0 c0 -5 -6 -10 -14 -10 -8 0 -18 5 -21 10 -3 6 3 10 14 10 12
0 21 -4 21 -10z m602 -7 c24 -22 23 -30 -8 -36 -33 -6 -75 30 -53 44 21 13 40
11 61 -8z m-1412 -12 c0 -16 -26 -31 -54 -31 l-29 0 22 24 c20 22 61 26 61 7z
m344 -2 c-7 -12 -54 -12 -54 0 0 5 6 11 13 14 18 6 48 -4 41 -14z m623 -7
c-10 -2 -26 -1 -35 3 -14 5 -14 8 -2 15 8 5 22 4 34 -3 19 -10 20 -11 3 -15z
m-1818 12 c25 -5 31 -11 31 -33 0 -60 -9 -71 -57 -71 l-45 0 6 31 c3 17 6 42
6 55 0 25 8 28 59 18z m1421 -4 c0 -5 -7 -10 -16 -10 -8 0 -12 5 -9 10 3 6 10
10 16 10 5 0 9 -4 9 -10z m155 0 c3 -5 -1 -10 -9 -10 -9 0 -16 5 -16 10 0 6 4
10 9 10 6 0 13 -4 16 -10z m590 -10 c18 -20 17 -20 -11 -20 -29 0 -54 15 -54
32 0 16 47 7 65 -12z m883 -37 l3 -53 -60 0 c-42 0 -61 4 -61 13 0 6 -3 29 -6
49 -6 36 -6 37 32 41 86 9 89 8 92 -50z m-2879 31 c2 -2 -1 -20 -6 -41 -9 -37
-10 -38 -60 -41 l-51 -3 9 42 c6 23 12 46 14 50 5 6 85 1 94 -7z m764 9 c12
-11 -15 -33 -41 -33 -24 0 -25 1 -7 20 18 20 36 25 48 13z m334 -9 c-3 -3 -12
-4 -19 -1 -8 3 -5 6 6 6 11 1 17 -2 13 -5z m468 -4 c3 -5 -1 -10 -9 -10 -8 0
-18 5 -21 10 -3 6 1 10 9 10 8 0 18 -4 21 -10z m335 -5 c10 -12 10 -15 -3 -15
-23 0 -47 11 -47 21 0 15 37 10 50 -6z m813 8 c2 -5 7 -25 11 -45 l7 -38 -40
0 c-35 0 -40 3 -50 31 -18 52 -15 59 28 59 22 0 42 -3 44 -7z m-2593 -17 c0
-8 -4 -26 -10 -40 -8 -22 -16 -26 -50 -26 -44 0 -45 2 -29 49 10 28 15 31 50
31 27 0 39 -4 39 -14z m740 5 c0 -11 -25 -21 -52 -21 -17 0 -18 3 -8 15 13 16
60 21 60 6z m467 3 c-3 -3 -12 -4 -19 -1 -8 3 -5 6 6 6 11 1 17 -2 13 -5z
m484 -10 c11 -14 10 -15 -11 -12 -13 1 -25 9 -28 16 -5 17 23 15 39 -4z m782
9 c3 -5 8 -23 12 -40 7 -33 6 -33 -33 -33 -36 0 -41 3 -51 31 -6 18 -11 36
-11 40 0 11 77 12 83 2z m-2353 -8 c0 -4 -7 -19 -15 -35 -13 -25 -22 -30 -50
-30 -19 0 -35 2 -35 4 0 1 5 17 11 35 10 28 15 31 50 31 21 0 39 -2 39 -5z
m698 -16 c-7 -5 -22 -9 -33 -9 -19 1 -19 1 -2 15 11 7 26 11 34 8 12 -5 12 -7
1 -14z m549 15 c-3 -3 -12 -4 -19 -1 -8 3 -5 6 6 6 11 1 17 -2 13 -5z m993
-20 c15 -40 13 -44 -28 -44 -32 0 -41 5 -50 25 -18 40 -15 45 28 45 34 0 42
-4 50 -26z m-2150 8 c0 -21 -34 -52 -56 -52 -24 0 -24 1 -9 30 11 21 23 30 40
30 14 0 25 -3 25 -8z m1390 -2 c0 -5 -4 -10 -9 -10 -6 0 -13 5 -16 10 -3 6 1
10 9 10 9 0 16 -4 16 -10z m533 -48 c-27 -3 -41 2 -50 14 -19 26 -16 32 15 36
19 3 33 -3 49 -22 l23 -25 -37 -3z m105 33 c16 -34 16 -35 -11 -35 -16 0 -28
9 -35 25 -16 34 -16 35 11 35 16 0 28 -9 35 -25z m-1938 7 c0 -22 -28 -43 -53
-40 -27 3 -27 4 -12 26 15 21 65 32 65 14z m100 -12 c0 -16 -30 -31 -55 -28
-24 3 -25 4 -11 24 11 15 23 20 41 17 14 -3 25 -9 25 -13z m1638 -8 c14 -21
13 -22 -15 -22 -44 0 -72 34 -35 43 25 7 34 3 50 -21z m-1564 12 c21 -8 2 -34
-25 -34 -22 0 -24 11 -7 28 14 14 12 14 32 6z m1461 -14 c18 -19 17 -20 -7
-20 -26 0 -53 22 -41 33 12 12 30 7 48 -13z m-1367 -2 c-3 -7 -15 -15 -28 -16
-21 -3 -22 -2 -11 12 16 19 44 21 39 4z m1272 -3 c10 -12 10 -15 -3 -15 -8 0
-20 7 -27 15 -10 12 -10 15 3 15 8 0 20 -7 27 -15z m-1185 -5 c-3 -5 -15 -10
-26 -10 -11 0 -17 5 -14 10 3 6 15 10 26 10 11 0 17 -4 14 -10z m1105 0 c12
-8 11 -10 -7 -10 -12 0 -25 5 -28 10 -8 13 15 13 35 0z m-1023 -6 c-3 -3 -12
-4 -19 -1 -8 3 -5 6 6 6 11 1 17 -2 13 -5z m-1137 -84 c0 -44 -2 -45 -67 -54
l-43 -6 0 50 0 50 55 0 55 0 0 -40z m120 16 c0 -45 -10 -56 -51 -56 -41 0 -46
8 -33 58 5 18 13 22 45 22 35 0 39 -3 39 -24z m124 -3 c-10 -42 -12 -43 -55
-43 -36 0 -39 2 -39 28 0 38 6 42 57 42 42 0 43 -1 37 -27z m116 16 c0 -30
-22 -49 -56 -49 -29 0 -35 3 -30 16 3 9 6 22 6 30 0 10 12 14 40 14 22 0 40
-5 40 -11z m110 5 c0 -24 -24 -44 -55 -44 -33 0 -34 1 -23 25 9 19 19 25 45
25 18 0 33 -3 33 -6z m80 -14 c-6 -12 -21 -20 -36 -20 -22 0 -23 2 -14 20 6
12 21 20 36 20 22 0 23 -2 14 -20z m90 10 c0 -12 -47 -36 -55 -28 -3 3 -3 13
1 22 7 17 54 23 54 6z m90 -5 c-7 -8 -24 -15 -37 -15 -22 0 -24 2 -13 15 7 8
24 15 37 15 22 0 24 -2 13 -15z m85 5 c-3 -5 -13 -10 -21 -10 -8 0 -14 5 -14
10 0 6 9 10 21 10 11 0 17 -4 14 -10z m82 4 c-3 -3 -12 -4 -19 -1 -8 3 -5 6 6
6 11 1 17 -2 13 -5z m915 -5 c245 -26 518 -130 758 -290 119 -79 319 -277 413
-409 72 -102 202 -353 237 -460 12 -36 35 -132 51 -215 57 -293 34 -608 -62
-882 -85 -241 -220 -455 -398 -633 -156 -155 -273 -239 -466 -335 -182 -90
-230 -106 -426 -145 -170 -34 -330 -39 -535 -19 -247 24 -520 128 -764 290
-119 79 -319 278 -413 409 -143 202 -241 431 -286 666 -34 179 -41 351 -20
546 34 324 204 692 434 936 257 272 564 447 910 518 136 27 182 32 312 33 84
1 199 -4 255 -10z m493 1 c3 -5 2 -10 -4 -10 -5 0 -13 5 -16 10 -3 6 -2 10 4
10 5 0 13 -4 16 -10z m95 -5 c10 -12 9 -15 -8 -15 -11 0 -25 7 -32 15 -10 12
-9 15 8 15 11 0 25 -7 32 -15z m98 -5 c11 -18 10 -20 -11 -20 -23 0 -47 16
-47 32 0 17 46 7 58 -12z m107 -2 c15 -22 14 -23 -11 -26 -24 -3 -64 21 -64
40 0 19 59 7 75 -14z m84 -8 c7 -22 7 -30 -2 -30 -18 0 -33 12 -46 38 -11 20
-9 22 13 22 18 0 27 -8 35 -30z m114 -3 c11 -35 8 -39 -32 -31 -21 5 -37 16
-47 36 l-15 29 42 -3 c36 -3 44 -7 52 -31z m112 -3 c3 -20 4 -38 2 -40 -2 -2
-18 -1 -35 2 -23 5 -34 14 -41 37 -6 16 -11 32 -11 33 0 2 17 4 39 4 37 0 39
-2 46 -36z m110 -5 c4 -22 5 -42 3 -45 -3 -2 -19 -1 -36 2 -21 4 -32 13 -36
29 -3 13 -9 30 -12 39 -5 13 1 16 34 16 39 0 40 -1 47 -41z m145 7 c0 -19 3
-42 7 -52 5 -15 0 -16 -46 -12 -61 6 -66 10 -75 61 l-7 37 61 0 60 0 0 -34z
m130 -21 l0 -55 -40 0 c-44 0 -45 2 -54 68 l-6 42 50 0 50 0 0 -55z m-2370 11
c0 -2 -7 -7 -16 -10 -8 -3 -12 -2 -9 4 6 10 25 14 25 6z m-96 -21 c-25 -19
-40 -19 -24 0 7 8 20 15 28 15 13 0 12 -3 -4 -15z m-161 -19 c-10 -14 -26 -27
-36 -30 -28 -7 -17 26 13 41 37 19 43 16 23 -11z m72 4 c-10 -11 -22 -20 -27
-20 -4 0 -3 9 4 20 7 11 19 20 27 20 11 0 10 -5 -4 -20z m-165 -20 c-20 -27
-50 -41 -50 -22 0 18 33 52 51 52 20 0 20 0 -1 -30z m1867 24 c-3 -3 -12 -4
-19 -1 -8 3 -5 6 6 6 11 1 17 -2 13 -5z m99 -15 c3 -5 1 -9 -5 -9 -17 0 -41
12 -41 20 0 10 38 1 46 -11z m-2036 1 c0 -15 -50 -64 -57 -56 -12 11 20 66 38
66 11 0 19 -5 19 -10z m2118 4 c12 -4 22 -13 22 -21 0 -17 -36 -9 -60 13 -12
12 -12 14 0 14 8 0 25 -3 38 -6z m-2315 -52 c-14 -36 -20 -42 -45 -42 -29 0
-31 6 -19 50 5 19 15 26 41 30 19 3 36 5 37 5 2 -1 -5 -20 -14 -43z m100 14
c-10 -23 -25 -36 -42 -39 -14 -3 -27 -4 -29 -2 -2 1 4 19 12 39 13 30 20 36
45 36 l31 0 -17 -34z m2307 30 c0 -2 3 -11 6 -20 9 -24 -23 -20 -36 4 -9 17
-8 20 10 20 11 0 20 -2 20 -4z m-2505 -38 c-11 -51 -22 -65 -55 -70 -16 -3
-32 -3 -33 -1 -2 1 -1 22 2 45 6 45 5 44 84 57 5 0 5 -14 2 -31z m2619 16 c11
-28 6 -35 -20 -32 -15 2 -33 13 -42 26 -14 21 -13 22 21 22 23 0 37 -6 41 -16z
m-2742 -65 c-6 -27 -14 -35 -40 -40 -32 -6 -32 -6 -32 35 0 52 8 63 45 68 35
4 41 -11 27 -63z m2848 45 c13 -34 13 -34 -10 -34 -21 0 -60 33 -60 50 0 6 14
10 30 10 24 0 33 -6 40 -26z m-2950 -18 c0 -63 -14 -83 -59 -88 l-41 -4 0 58
0 57 43 4 c23 2 45 4 50 5 4 1 7 -13 7 -32z m3054 8 c4 -15 3 -31 -1 -35 -16
-16 -52 3 -62 32 -10 28 -9 29 23 29 28 0 35 -4 40 -26z m122 8 c6 -4 13 -22
16 -39 4 -30 2 -33 -21 -32 -55 2 -75 14 -82 47 -6 32 -6 32 35 32 22 0 46 -4
52 -8z m-3316 -61 l0 -58 -37 -7 c-21 -3 -43 -6 -49 -6 -12 0 -28 105 -19 121
4 5 28 9 56 9 l49 0 0 -59z m2735 48 c11 -17 0 -20 -21 -4 -17 13 -17 14 -2
15 9 0 20 -5 23 -11z m693 5 c18 -5 22 -13 22 -45 0 -35 -3 -39 -24 -39 -45 0
-56 10 -56 51 0 41 8 46 58 33z m-2673 -14 c-3 -5 -12 -10 -18 -10 -7 0 -6 4
3 10 19 12 23 12 15 0z m2069 -3 c11 -8 17 -20 14 -27 -3 -9 -13 -5 -33 13
-32 28 -15 39 19 14z m774 -3 c2 -1 1 -21 -3 -43 -6 -36 -10 -41 -33 -41 -61
0 -72 9 -72 57 l0 44 53 -7 c28 -4 54 -8 55 -10z m-2923 -14 c-3 -5 -13 -10
-21 -10 -8 0 -12 5 -9 10 3 6 13 10 21 10 8 0 12 -4 9 -10z m2239 -6 c11 -30
6 -37 -14 -19 -11 10 -20 22 -20 27 0 15 28 9 34 -8z m-2327 -21 c-9 -9 -20
-13 -24 -9 -4 4 1 14 11 22 25 18 35 8 13 -13z m2424 11 c4 -2 9 -13 12 -24 4
-16 0 -20 -18 -20 -22 0 -55 32 -55 52 0 7 44 1 61 -8z m-2481 -8 c0 -12 -34
-36 -51 -36 -17 0 -18 3 -9 20 9 17 60 30 60 16z m2572 -8 c9 -7 19 -24 23
-37 7 -22 5 -23 -21 -17 -16 4 -29 8 -29 9 -1 1 -6 14 -13 30 -10 24 -9 27 6
27 10 0 25 -6 34 -12z m-2672 -10 c0 -22 -14 -35 -42 -42 -25 -6 -27 -4 -19
16 4 13 19 26 32 29 13 4 25 7 27 8 1 1 2 -5 2 -11z m2773 -5 c2 -5 7 -20 11
-35 5 -23 3 -28 -13 -28 -21 0 -35 15 -45 48 -6 19 -4 22 18 22 14 0 27 -3 29
-7z m-2873 -22 c0 -22 -16 -36 -48 -44 -20 -5 -23 -2 -20 21 2 18 11 28 28 33
38 11 40 10 40 -10z m2556 -8 c-8 -8 -36 5 -36 17 0 7 6 7 21 0 11 -7 18 -14
15 -17z m455 -28 c4 -22 5 -42 3 -44 -1 -2 -22 3 -46 10 -36 12 -43 19 -49 46
-3 18 -5 34 -3 36 2 2 23 1 46 -2 41 -6 43 -8 49 -46z m-2711 41 c0 -3 -4 -8
-10 -11 -5 -3 -10 -1 -10 4 0 6 5 11 10 11 6 0 10 -2 10 -4z m-408 -36 c-3
-26 -18 -40 -44 -40 -13 0 -18 8 -18 29 0 20 6 31 18 34 33 9 47 2 44 -23z
m328 5 c-7 -9 -15 -13 -17 -11 -7 7 7 26 19 26 6 0 6 -6 -2 -15z m2404 0 c3
-8 1 -15 -3 -15 -5 0 -11 7 -15 15 -3 8 -1 15 3 15 5 0 11 -7 15 -15z m494
-38 c3 -48 3 -48 -25 -41 -42 10 -43 12 -43 55 0 39 1 40 33 37 31 -3 32 -5
35 -51z m-3322 21 c-3 -13 -6 -28 -6 -34 0 -7 -11 -15 -24 -18 -13 -3 -31 -9
-40 -12 -13 -5 -16 1 -16 34 0 43 6 47 69 51 20 1 22 -3 17 -21z m364 13 c0
-14 -30 -41 -45 -41 -31 0 4 40 43 49 1 1 2 -3 2 -8z m2561 -23 c6 -11 9 -21
7 -23 -8 -8 -53 22 -56 37 -4 23 35 12 49 -14z m530 4 c3 -4 4 -27 1 -50 l-4
-44 -37 7 c-50 10 -51 10 -51 65 l0 48 43 -10 c23 -5 45 -12 48 -16z m-3581
-31 c0 -35 -3 -40 -31 -50 -54 -19 -60 -15 -57 31 3 39 6 44 33 49 54 12 55
11 55 -30z m400 21 c0 -13 -24 -39 -42 -45 -23 -8 -24 16 -2 37 16 17 44 22
44 8z m2734 -8 c18 -17 21 -44 6 -44 -5 0 -19 9 -30 20 -11 11 -20 25 -20 30
0 15 27 12 44 -6z m589 -3 c4 -4 2 -31 -4 -60 -10 -47 -13 -52 -33 -47 -11 4
-33 9 -48 12 -30 7 -34 22 -22 83 7 31 7 32 53 25 25 -3 49 -10 54 -13z
m-3847 -77 c-5 -14 -88 -36 -97 -26 -4 4 -10 25 -14 48 l-6 41 53 9 53 9 8
-35 c4 -19 6 -39 3 -46z m695 63 c-10 -9 -11 -8 -5 6 3 10 9 15 12 12 3 -3 0
-11 -7 -18z m2354 13 c3 -5 2 -10 -4 -10 -5 0 -13 5 -16 10 -3 6 -2 10 4 10 5
0 13 -4 16 -10z m-2620 -27 c-4 -16 -7 -28 -8 -28 -1 -1 -14 -6 -29 -13 -25
-10 -28 -9 -28 6 0 30 30 58 64 61 4 1 5 -11 1 -26z m2926 -16 c5 -18 3 -27
-4 -27 -21 0 -35 15 -42 43 -7 25 -6 27 16 19 13 -5 26 -21 30 -35z m-2721 12
c-7 -11 -14 -18 -17 -15 -3 3 0 12 7 21 18 21 23 19 10 -6z m2484 -5 c3 -8 2
-12 -4 -9 -6 3 -10 10 -10 16 0 14 7 11 14 -7z m-2784 -14 c0 -21 -33 -60 -50
-60 -17 0 -11 58 8 69 27 16 42 13 42 -9z m3131 4 c4 -2 9 -20 11 -39 3 -29 1
-34 -11 -29 -9 3 -28 11 -43 16 -22 8 -28 16 -28 40 0 28 2 29 33 23 17 -4 35
-9 38 -11z m-2898 -11 c-10 -27 -43 -45 -43 -24 0 12 29 41 40 41 5 0 6 -8 3
-17z m2631 1 c9 -8 16 -20 16 -25 0 -14 -17 -11 -34 7 -9 8 -16 20 -16 25 0
14 17 11 34 -7z m-2959 -37 c-6 -28 -14 -38 -37 -46 -17 -6 -33 -11 -34 -11
-2 0 -4 17 -4 38 0 36 2 39 38 48 20 6 38 9 40 8 2 -1 0 -18 -3 -37z m3321 23
c10 0 14 -12 14 -40 0 -41 -8 -47 -41 -30 -25 14 -28 86 -3 76 9 -3 22 -6 30
-6z m-3073 -17 c-9 -27 -24 -43 -39 -43 -17 0 -8 30 14 48 22 17 32 15 25 -5z
m2810 -23 c3 -11 1 -20 -3 -20 -14 0 -40 30 -40 46 0 22 36 0 43 -26z m-3173
-19 c0 -35 -3 -40 -31 -50 -48 -16 -50 -15 -47 31 2 35 7 43 28 49 46 13 50
11 50 -30z m3539 28 c28 -10 31 -15 31 -50 0 -42 -9 -47 -54 -29 -22 8 -26 16
-26 50 0 44 2 45 49 29z m-3259 -24 c0 -15 -10 -31 -25 -41 -31 -20 -35 -17
-28 19 5 23 22 39 51 46 1 1 2 -10 2 -24z m2970 -21 c0 -22 -2 -23 -20 -14
-12 6 -20 21 -20 36 0 22 2 23 20 14 12 -6 20 -21 20 -36z m-3366 -5 c3 -17 6
-37 6 -44 0 -12 -80 -49 -88 -40 -2 2 -7 24 -9 48 -5 44 -5 44 33 55 22 5 42
10 45 11 4 1 9 -13 13 -30z m3790 14 c27 -6 28 -8 22 -51 -3 -25 -8 -47 -10
-50 -8 -7 -78 23 -83 36 -3 6 -2 28 2 48 5 28 10 34 23 29 9 -3 30 -9 46 -12z
m-3269 -3 c-3 -5 -12 -10 -18 -10 -7 0 -6 4 3 10 19 12 23 12 15 0z m2706 -7
c13 -15 12 -15 -8 -4 -24 12 -29 21 -14 21 5 0 15 -7 22 -17z m214 3 c29 -13
35 -20 35 -45 l0 -31 -35 17 c-19 9 -35 22 -35 29 0 7 -3 19 -6 28 -8 20 -3
20 41 2z m-3137 -22 c-2 -15 -13 -33 -25 -42 -22 -14 -23 -13 -23 21 0 34 9
44 38 46 9 1 12 -8 10 -25z m-433 -16 c15 -64 12 -71 -35 -89 l-45 -17 -12 32
c-20 55 -16 72 20 84 51 16 66 14 72 -10z m4041 11 c28 -7 44 -17 44 -27 0
-31 -24 -93 -34 -89 -6 2 -28 10 -49 18 -37 13 -38 14 -31 54 10 62 6 60 70
44z m-3690 -21 c-3 -13 -6 -29 -6 -35 0 -7 -13 -19 -30 -28 l-30 -16 0 41 c0
33 4 42 23 50 38 15 50 12 43 -12z m224 13 c0 -5 -7 -11 -15 -15 -15 -5 -20 5
-8 17 9 10 23 9 23 -2z m2855 -2 c11 -17 -1 -21 -15 -4 -8 9 -8 15 -2 15 6 0
14 -5 17 -11z m265 -46 c0 -36 -2 -38 -31 -23 -13 8 -19 21 -19 45 0 33 1 34
25 23 19 -9 25 -19 25 -45z m-3088 5 c-7 -7 -12 -8 -12 -2 0 14 12 26 19 19 2
-3 -1 -11 -7 -17z m2773 4 c-3 -3 -11 0 -18 7 -9 10 -8 11 6 5 10 -3 15 -9 12
-12z m125 -2 c6 -11 7 -20 2 -20 -10 0 -32 21 -32 32 0 16 19 8 30 -12z
m-3260 -28 c0 -32 -5 -41 -25 -50 -40 -18 -45 -15 -45 28 0 33 4 42 23 50 40
16 47 12 47 -28z m245 18 c-21 -23 -35 -26 -35 -6 0 15 14 24 39 25 11 1 10
-4 -4 -19z m3284 9 c26 -9 31 -16 31 -43 0 -43 -7 -48 -41 -30 -24 12 -29 21
-29 49 0 19 2 35 4 35 1 0 17 -5 35 -11z m-3232 -44 c-4 -8 -11 -15 -17 -15
-7 0 -7 6 0 21 13 23 26 19 17 -6z m3048 13 c21 -9 37 -48 19 -48 -14 0 -45
22 -54 40 -12 23 -3 25 35 8z m-3451 -20 c13 -51 7 -66 -30 -78 -19 -7 -37
-10 -39 -8 -2 2 -7 22 -10 44 -6 37 -5 40 22 51 42 16 50 15 57 -9z m276 7 c0
-8 -9 -19 -20 -25 -17 -9 -20 -8 -20 9 0 17 11 28 33 30 4 1 7 -6 7 -14z
m3040 5 c0 -5 -2 -10 -4 -10 -3 0 -8 5 -11 10 -3 6 -1 10 4 10 6 0 11 -4 11
-10z m436 -5 c33 -14 35 -16 28 -52 -4 -21 -8 -39 -9 -41 -1 -1 -18 5 -38 13
-32 13 -37 20 -37 48 0 30 6 47 17 47 2 0 19 -7 39 -15z m-3546 -27 c0 -19
-12 -34 -37 -47 -21 -11 -23 -9 -23 12 0 15 8 28 23 35 30 14 37 14 37 0z
m131 -17 c-6 -10 -17 -23 -25 -31 -22 -17 -22 7 0 38 18 26 39 20 25 -7z
m3219 -17 c0 -22 -2 -23 -20 -14 -12 6 -20 21 -20 36 0 22 2 23 20 14 12 -6
20 -21 20 -36z m-3670 24 c0 -7 3 -29 6 -48 5 -33 3 -37 -31 -53 -21 -10 -40
-15 -44 -12 -6 7 -32 88 -28 91 6 6 74 32 85 33 6 1 12 -5 12 -11z m3500 -4
c0 -8 -4 -12 -10 -9 -5 3 -10 10 -10 16 0 5 5 9 10 9 6 0 10 -7 10 -16z m493
-5 c27 -9 36 -17 32 -29 -4 -8 -9 -27 -12 -42 -6 -32 -21 -35 -65 -12 -26 14
-29 19 -24 46 3 17 6 37 6 45 0 8 6 13 13 10 6 -2 29 -10 50 -18z m-415 -25
c12 -8 22 -24 22 -35 0 -20 0 -20 -30 1 -16 12 -30 28 -30 36 0 18 10 18 38
-2z m192 -39 c0 -29 -7 -31 -38 -9 -13 9 -22 26 -22 40 0 24 1 24 30 9 21 -11
30 -23 30 -40z m-3887 -11 l15 -51 -44 -22 -45 -21 -15 35 c-27 65 -24 77 26
96 25 9 46 16 46 15 1 0 9 -24 17 -52z m337 37 c0 -18 -34 -51 -52 -51 -19 0
-7 48 15 58 32 15 37 14 37 -7z m155 -3 c-4 -13 -13 -30 -21 -38 -12 -12 -14
-12 -14 0 0 32 13 60 27 60 10 0 12 -6 8 -22z m3760 -8 c14 -5 25 -13 25 -17
0 -17 -33 -93 -41 -93 -5 0 -24 8 -44 17 -38 18 -41 31 -24 82 12 34 20 35 84
11z m-3841 -71 c-24 -27 -34 -24 -34 10 0 20 8 35 23 46 21 15 22 14 25 -11 2
-14 -4 -34 -14 -45z m-164 23 c0 -7 -15 -21 -32 -32 -31 -18 -33 -19 -40 -2
-12 31 -9 38 25 54 32 16 46 10 47 -20z m3384 22 c3 -8 2 -12 -4 -9 -6 3 -10
10 -10 16 0 14 7 11 14 -7z m144 4 c14 -14 16 -48 2 -48 -10 0 -30 32 -30 49
0 14 13 14 28 -1z m193 -4 c20 -10 29 -20 25 -30 -3 -9 -6 -22 -6 -30 0 -11
-6 -11 -35 3 -33 16 -47 48 -28 66 9 9 10 9 44 -9z m-3431 -25 c-7 -11 -14
-18 -17 -15 -8 8 5 36 17 36 7 0 7 -6 0 -21z m-216 -86 c-26 -19 -31 -16 -36
17 -4 24 1 35 21 50 l26 19 3 -37 c3 -26 -2 -40 -14 -49z m3384 75 c5 -7 13
-24 17 -37 l7 -24 -25 19 c-29 21 -42 54 -22 54 7 0 17 -6 23 -12z m170 -42
c4 -29 0 -31 -29 -16 -12 7 -19 21 -19 42 0 29 1 30 23 16 12 -9 23 -27 25
-42z m-3729 -3 c1 -11 -67 -59 -73 -52 -2 2 -7 18 -10 35 -7 29 -4 33 31 47
35 14 39 14 45 -2 4 -9 7 -21 7 -28z m3932 31 c27 -14 30 -19 23 -47 -3 -18
-8 -34 -10 -36 -4 -5 -74 39 -74 47 1 21 14 52 22 52 5 0 23 -7 39 -16z
m-3606 -23 c-3 -12 -11 -21 -16 -21 -6 0 -8 3 -6 8 2 4 7 16 11 26 9 25 20 13
11 -13z m3315 -48 c0 -22 -2 -24 -15 -13 -8 7 -15 24 -15 37 0 22 2 24 15 13
8 -7 15 -24 15 -37z m-3751 -18 c1 -13 -11 -27 -34 -39 -19 -11 -36 -17 -38
-15 -8 10 -27 62 -25 64 2 1 21 12 43 23 37 18 41 19 47 4 4 -10 7 -26 7 -37z
m215 23 c6 -28 2 -37 -21 -57 l-28 -24 -6 29 c-11 51 -10 61 14 72 32 16 34
15 41 -20z m156 -24 c-7 -7 -16 -14 -21 -14 -16 0 -9 42 9 56 15 11 17 10 20
-7 2 -11 -2 -27 -8 -35z m3545 44 c25 -11 30 -28 16 -62 -7 -17 -9 -17 -35 6
-22 18 -27 29 -22 46 9 26 8 25 41 10z m232 -5 c21 -10 40 -18 41 -20 7 -4
-20 -73 -28 -73 -19 0 -70 36 -70 50 0 19 11 60 16 60 2 0 20 -8 41 -17z
m-457 -52 c0 -11 -5 -10 -20 4 -11 10 -20 22 -20 27 0 4 9 3 20 -4 11 -7 20
-19 20 -27z m142 -26 c-2 -14 -7 -25 -11 -25 -16 0 -31 26 -31 52 0 28 1 28
24 13 17 -11 22 -22 18 -40z m-3707 4 c7 -38 5 -44 -21 -64 -32 -26 -38 -21
-49 35 -5 31 -3 37 22 52 39 24 40 23 48 -23z m3886 24 c30 -18 33 -24 23 -60
-8 -28 -22 -29 -51 -4 -18 15 -22 26 -17 50 8 36 7 36 45 14z m-4121 -55 c0
-15 -76 -66 -85 -56 -9 10 -36 70 -33 73 2 2 24 13 48 24 l45 20 12 -22 c7
-12 12 -30 13 -39z m399 -4 c-16 -20 -26 -18 -33 9 -4 16 1 27 17 41 22 18 22
18 25 -8 2 -15 -2 -34 -9 -42z m128 44 c-3 -8 -6 -5 -6 6 -1 11 2 17 5 13 3
-3 4 -12 1 -19z m3863 2 l40 -20 -20 -40 -20 -40 -40 20 c-42 22 -47 34 -28
75 14 30 18 31 68 5z m-3924 -68 c-15 -15 -16 -15 -16 4 0 28 24 52 28 28 2
-9 -3 -24 -12 -32z m3394 27 c0 -11 -4 -17 -10 -14 -5 3 -10 13 -10 21 0 8 5
14 10 14 6 0 10 -9 10 -21z m153 7 c18 -14 23 -61 8 -70 -5 -3 -19 2 -31 12
-17 13 -20 24 -15 45 8 30 13 32 38 13z m-3874 -38 c10 -41 9 -44 -17 -65 -35
-29 -38 -29 -50 5 -5 15 -13 35 -17 44 -5 13 2 23 27 38 18 11 36 20 39 20 4
0 12 -19 18 -42z m4086 25 c19 -9 35 -20 35 -24 0 -7 -20 -58 -26 -67 -6 -10
-64 34 -64 48 0 19 11 60 16 60 2 0 19 -8 39 -17z m-3892 -19 c5 -31 -31 -73
-45 -52 -12 20 -9 40 9 60 22 24 30 23 36 -8z m3477 -12 c0 -13 -3 -12 -15 4
-19 25 -19 40 0 24 8 -7 15 -20 15 -28z m119 -6 c16 -19 3 -50 -15 -35 -15 13
-19 49 -5 49 5 0 14 -6 20 -14z m-3533 -54 c-14 -14 -16 -14 -22 2 -4 10 1 25
12 38 l19 20 3 -22 c2 -12 -3 -30 -12 -38z m3704 40 c18 -15 21 -24 15 -50 -8
-38 -15 -39 -42 -9 -15 15 -20 30 -16 50 6 32 13 33 43 9z m-4062 -42 c15 -43
15 -44 -14 -67 -16 -12 -33 -23 -39 -23 -12 0 -50 89 -41 97 15 15 62 41 70
39 6 -1 16 -22 24 -46z m4298 29 c39 -23 40 -29 19 -69 -18 -35 -18 -35 -56
-13 -31 19 -36 38 -17 78 14 30 12 30 54 4z m-4082 -5 c11 -29 5 -49 -19 -67
-22 -16 -26 -16 -30 -3 -3 9 -7 24 -10 33 -4 11 3 24 17 35 29 22 34 22 42 2z
m3603 -16 c-3 -8 -6 -5 -6 6 -1 11 2 17 5 13 3 -3 4 -12 1 -19z m-3395 -10
c-7 -7 -12 -8 -12 -2 0 14 12 26 19 19 2 -3 -1 -11 -7 -17z m3551 -39 c-10
-37 -43 -11 -43 35 l0 29 24 -22 c15 -14 22 -30 19 -42z m-3684 -25 c-6 -8
-15 -14 -20 -14 -16 0 -10 43 9 63 17 19 17 19 20 -7 2 -15 -2 -34 -9 -42z
m3489 41 c-3 -3 -9 2 -12 12 -6 14 -5 15 5 6 7 -7 10 -15 7 -18z m372 5 c26
-19 27 -22 17 -55 -12 -40 -16 -42 -47 -17 -19 16 -22 24 -16 55 4 20 9 37 12
37 3 0 19 -9 34 -20z m-4261 -47 l23 -47 -29 -23 c-15 -13 -31 -23 -35 -23 -7
0 -58 88 -58 101 0 9 49 38 66 39 5 0 20 -21 33 -47z m244 10 c4 -20 -1 -35
-16 -50 -11 -13 -24 -23 -28 -23 -8 0 -34 69 -27 74 27 21 53 34 58 31 4 -3
10 -17 13 -32z m3757 0 c0 -24 -25 -9 -28 17 -3 21 -2 22 12 11 9 -7 16 -20
16 -28z m520 22 c17 -9 30 -20 30 -25 0 -13 -41 -80 -48 -80 -4 0 -20 11 -37
24 l-30 24 17 36 c20 40 27 42 68 21z m-4054 -43 c-14 -14 -16 -14 -16 -1 0
20 23 44 29 28 2 -6 -4 -18 -13 -27z m3677 14 c18 -14 21 -33 11 -61 -6 -14
-8 -14 -25 1 -18 16 -27 74 -11 74 4 0 15 -7 25 -14z m-3616 -18 c-3 -8 -6 -5
-6 6 -1 11 2 17 5 13 3 -3 4 -12 1 -19z m3861 -24 c2 -1 -6 -21 -18 -43 l-21
-42 -29 23 c-29 23 -30 30 -9 86 l9 23 33 -22 c17 -12 33 -24 35 -25z m-4043
15 c6 -19 -17 -59 -35 -59 -17 0 -19 45 -3 62 21 23 30 23 38 -3z m-207 -93
l-31 -29 -18 34 c-25 47 -24 54 14 78 l32 21 17 -38 18 -37 -32 -29z m3928 49
c-9 -25 -36 0 -36 33 l0 26 21 -21 c14 -13 19 -28 15 -38z m-3650 0 c-7 -29
-26 -34 -26 -7 0 18 20 45 28 37 2 -2 2 -16 -2 -30z m3574 -6 c0 -11 -4 -17
-10 -14 -5 3 -10 15 -10 26 0 11 5 17 10 14 6 -3 10 -15 10 -26z m242 4 c13
-12 14 -20 6 -44 -12 -34 -19 -36 -42 -10 -13 14 -16 28 -11 50 7 32 13 32 47
4z m-3761 -26 c-13 -13 -15 1 -4 30 7 17 8 17 11 -1 2 -10 -1 -23 -7 -29z
m-197 -3 c4 -14 -1 -27 -18 -43 l-23 -22 -13 31 c-11 27 -10 32 11 49 26 21
33 18 43 -15z m4206 -14 c0 -8 -9 -30 -20 -48 -16 -27 -23 -31 -38 -23 -40 22
-45 37 -22 81 l21 41 29 -18 c17 -9 30 -24 30 -33z m-4419 -20 l18 -39 -29
-21 -29 -20 -25 42 -25 42 31 23 c36 26 35 26 59 -27z m4071 -5 c-2 -14 -8
-25 -11 -25 -14 0 -34 49 -27 66 6 16 8 16 25 0 12 -11 16 -25 13 -41z m-3772
11 c0 -25 -22 -51 -33 -39 -11 10 -8 38 5 51 18 18 28 14 28 -12z m3690 -28
c0 -10 -4 -18 -9 -18 -11 0 -21 25 -21 53 1 22 1 22 15 3 8 -11 15 -28 15 -38z
m259 22 c24 -20 24 -45 1 -80 -8 -13 -13 -11 -35 10 -23 23 -24 28 -13 58 14
37 15 38 47 12z m-3883 -25 c-7 -18 -26 -20 -26 -2 0 18 24 41 28 27 2 -6 1
-17 -2 -25z m-231 -6 c6 -24 2 -36 -16 -55 l-23 -25 -18 33 c-17 33 -17 33 10
55 35 30 39 29 47 -8z m4368 6 c20 -14 37 -28 37 -31 0 -3 -14 -26 -32 -50
l-32 -44 -30 27 c-17 16 -33 29 -36 31 -6 4 41 92 49 92 4 0 23 -11 44 -25z
m-586 -7 c-3 -8 -6 -5 -6 6 -1 11 2 17 5 13 3 -3 4 -12 1 -19z m227 -38 c-3
-14 -9 -29 -14 -34 -14 -14 -39 36 -33 66 5 27 6 27 29 10 18 -13 23 -23 18
-42z m-4232 6 l21 -44 -34 -31 c-19 -17 -38 -30 -44 -30 -9 -1 -65 71 -65 83
0 6 82 65 93 66 4 0 17 -20 29 -44z m328 -7 c0 -9 -8 -24 -19 -33 -18 -16 -19
-16 -25 10 -8 31 21 74 36 52 4 -7 8 -20 8 -29z m3805 -30 c-7 -21 -8 -21 -20
-5 -7 9 -10 26 -8 37 5 18 8 19 20 6 10 -10 13 -23 8 -38z m304 18 c9 -12 8
-21 -6 -46 -21 -37 -24 -37 -50 -8 -19 20 -19 25 -7 55 12 27 17 31 32 23 10
-6 24 -16 31 -24z m-4038 -24 l-13 -28 -9 24 c-11 28 7 59 24 42 7 -7 6 -19
-2 -38z m-264 -50 c-27 -30 -30 -29 -50 12 -16 34 -16 34 10 55 l27 21 17 -33
c17 -32 17 -34 -4 -55z m3926 40 c-5 -12 -7 -12 -14 -1 -5 7 -9 22 -9 33 1 19
1 19 15 2 7 -11 11 -26 8 -34z m-3593 18 c0 -6 -4 -13 -10 -16 -5 -3 -10 1
-10 9 0 9 5 16 10 16 6 0 10 -4 10 -9z m3831 -7 c17 -15 17 -18 2 -50 -16 -32
-18 -33 -35 -17 -19 17 -23 39 -12 67 8 20 23 20 45 0z m-4041 -19 c7 -20 6
-32 -6 -50 -21 -32 -28 -31 -43 1 -10 23 -9 30 10 50 28 30 27 30 39 -1z
m3928 -7 c14 -14 15 -37 2 -58 -8 -13 -11 -12 -23 4 -13 18 -12 66 2 66 4 0
12 -5 19 -12z m324 -15 c34 -32 34 -40 5 -76 l-22 -28 -29 30 -29 31 19 35
c10 19 21 35 23 35 3 0 18 -12 33 -27z m-4159 -5 c3 -11 0 -30 -8 -41 -13 -19
-13 -19 -24 2 -9 15 -9 27 -1 41 14 26 26 25 33 -2z m-289 -23 l19 -34 -27
-36 c-15 -19 -30 -35 -35 -35 -8 0 -51 55 -51 67 0 8 61 73 70 73 3 0 14 -16
24 -35z m347 -28 c-8 -8 -11 -4 -11 14 0 33 14 47 18 19 2 -12 -1 -27 -7 -33z
m3702 41 c6 -19 -4 -49 -14 -42 -12 7 -12 54 0 54 5 0 11 -6 14 -12z m263 -67
c-19 -36 -27 -38 -50 -12 -16 17 -16 21 1 55 l17 37 24 -24 c23 -23 23 -25 8
-56z m-4182 16 c8 -21 6 -31 -9 -47 l-19 -21 -19 31 c-19 30 -19 31 -1 51 22
24 36 20 48 -14z m4060 4 c14 -15 15 -23 5 -45 -15 -31 -25 -33 -39 -6 -11 20
-4 70 10 70 4 0 15 -8 24 -19z m-3960 -7 c10 -26 7 -51 -8 -63 -23 -19 -42 24
-25 55 14 28 24 30 33 8z m4328 -21 c18 -15 35 -28 37 -30 2 -1 -11 -21 -29
-43 l-33 -42 -36 36 -36 36 19 35 c23 42 34 43 78 8z m-458 -31 c-4 -12 -10
-22 -15 -22 -12 0 -22 46 -14 60 12 20 35 -12 29 -38z m-4199 -3 l29 -40 -38
-37 -37 -37 -36 39 -37 40 44 38 c23 21 44 38 45 38 1 0 15 -18 30 -41z m410
2 c-3 -12 -11 -21 -16 -21 -10 0 -12 43 -2 54 12 12 25 -11 18 -33z m4074 15
c25 -27 23 -52 -8 -80 -16 -15 -19 -14 -41 9 -23 24 -23 26 -7 60 20 41 26 43
56 11z m-4018 -19 c-8 -8 -11 -7 -11 4 0 20 13 34 18 19 3 -7 -1 -17 -7 -23z
m-306 -7 c15 -29 15 -32 -7 -60 -28 -35 -35 -36 -59 -7 -24 29 -24 36 8 69 34
35 39 35 58 -2z m3962 8 c-3 -8 -6 -5 -6 6 -1 11 2 17 5 13 3 -3 4 -12 1 -19z
m228 -57 c-13 -27 -19 -30 -31 -20 -17 14 -18 28 -4 65 l11 28 20 -21 c20 -19
20 -22 4 -52z m-4077 24 c9 -20 9 -30 0 -45 -17 -27 -23 -25 -38 10 -10 24
-10 33 0 45 17 21 25 19 38 -10z m3971 -46 l-15 -31 -11 23 c-6 15 -7 33 -1
48 8 23 10 23 25 8 15 -15 15 -20 2 -48z m-3877 33 c3 -11 0 -29 -6 -41 l-12
-22 -11 24 c-7 15 -8 29 -1 40 12 22 24 22 30 -1z m4213 -96 c-15 -20 -30 -36
-34 -35 -3 0 -18 15 -33 33 l-27 33 26 38 25 37 35 -35 36 -35 -28 -36z
m-4145 80 c0 -8 -4 -18 -10 -21 -5 -3 -10 3 -10 14 0 12 5 21 10 21 6 0 10 -6
10 -14z m47 -8 c-3 -8 -6 -5 -6 6 -1 11 2 17 5 13 3 -3 4 -12 1 -19z m3683 1
c0 -11 -4 -17 -10 -14 -5 3 -10 13 -10 21 0 8 5 14 10 14 6 0 10 -9 10 -21z
m256 -74 c-23 -42 -29 -43 -51 -9 -16 25 -16 28 1 60 l19 34 25 -25 25 -25
-19 -35z m-4359 58 c33 -43 33 -49 1 -88 l-31 -37 -28 33 -27 33 30 38 c34 43
36 44 55 21z m155 -20 c15 -25 15 -28 -6 -60 -11 -18 -24 -33 -27 -33 -3 0
-14 16 -25 35 -18 34 -18 34 6 60 29 31 32 31 52 -2z m4082 -40 c-5 -14 -14
-28 -21 -30 -18 -6 -25 32 -12 61 11 24 14 25 28 12 11 -12 13 -22 5 -43z
m-3984 27 c12 -22 5 -60 -10 -60 -18 0 -31 39 -20 60 13 25 17 25 30 0z m83
-37 c-3 -7 -9 -13 -13 -13 -16 0 -22 21 -9 36 14 17 31 0 22 -23z m3810 1 c-6
-17 -20 -18 -26 -1 -8 22 4 39 19 27 7 -7 10 -18 7 -26z m-3757 -1 c-10 -10
-19 5 -10 18 6 11 8 11 12 0 2 -7 1 -15 -2 -18z m3694 6 c0 -5 -4 -9 -10 -9
-5 0 -10 7 -10 16 0 8 5 12 10 9 6 -3 10 -10 10 -16z m527 -21 l33 -32 -37
-38 -37 -38 -28 27 c-15 15 -28 32 -28 39 0 13 48 74 58 74 3 0 21 -14 39 -32z
m-172 -9 l26 -32 -23 -26 c-12 -14 -26 -30 -30 -35 -8 -9 -26 8 -47 44 -10 16
22 80 39 80 5 0 20 -14 35 -31z m-4495 -57 c0 -4 -13 -23 -29 -42 l-29 -35
-36 35 -36 34 37 39 38 38 28 -31 c15 -16 27 -34 27 -38z m137 36 c23 -32 21
-41 -11 -83 -16 -20 -16 -19 -46 13 l-30 33 27 34 c16 19 30 35 33 35 3 0 15
-15 27 -32z m127 5 c12 -24 12 -31 0 -55 -18 -34 -27 -35 -46 -6 -14 20 -13
26 6 55 12 18 22 33 23 33 1 0 9 -12 17 -27z m4089 4 c13 -20 12 -25 -9 -56
l-22 -33 -15 29 c-13 25 -13 32 -1 56 18 33 27 34 47 4z m-106 -41 c-4 -9 -11
-16 -16 -16 -13 0 -21 27 -14 46 5 14 7 14 21 1 8 -9 12 -23 9 -31z m-3894 22
c2 -7 1 -21 -2 -31 -6 -17 -8 -17 -20 -3 -14 16 -9 46 8 46 5 0 11 -6 14 -12z
m67 -15 c0 -20 -3 -24 -11 -16 -7 7 -9 19 -6 27 10 24 17 19 17 -11z m3750 2
c0 -8 -4 -17 -10 -20 -6 -4 -10 5 -10 20 0 15 4 24 10 20 6 -3 10 -12 10 -20z
m-3703 -7 c-3 -8 -6 -5 -6 6 -1 11 2 17 5 13 3 -3 4 -12 1 -19z m3640 0 c-3
-8 -6 -5 -6 6 -1 11 2 17 5 13 3 -3 4 -12 1 -19z m466 -41 l24 -32 -33 -39
c-33 -38 -35 -39 -49 -20 -36 46 -37 52 -4 89 17 19 32 35 34 35 1 0 14 -15
28 -33z m-157 -12 c18 -34 18 -34 -6 -60 -30 -31 -32 -31 -52 3 -16 27 -16 30
5 60 12 17 25 32 28 32 3 0 14 -16 25 -35z m-4354 -19 l27 -33 -26 -38 -25
-37 -35 35 -36 35 28 36 c15 20 30 36 34 35 3 0 18 -15 33 -33z m143 8 c16
-25 16 -28 -1 -60 l-18 -34 -27 26 -28 26 22 34 c12 19 25 34 28 34 4 0 14
-12 24 -26z m110 7 c3 -10 0 -30 -6 -45 -9 -20 -15 -23 -26 -15 -16 14 -17 33
-3 60 13 24 27 24 35 0z m3884 -27 c-17 -21 -31 3 -17 30 10 18 11 18 20 2 7
-12 6 -22 -3 -32z m91 26 c10 -18 -1 -60 -15 -60 -11 0 -25 43 -20 60 8 26 21
25 35 0z m-3897 -3 c9 -23 -8 -40 -22 -23 -13 15 -7 36 9 36 4 0 10 -6 13 -13z
m57 -13 c0 -8 -4 -12 -10 -9 -5 3 -10 10 -10 16 0 5 5 9 10 9 6 0 10 -7 10
-16z m3690 7 c0 -6 -4 -13 -10 -16 -5 -3 -10 1 -10 9 0 9 5 16 10 16 6 0 10
-4 10 -9z m99 -103 c-21 -39 -44 -3 -25 40 l10 23 12 -23 c8 -15 9 -29 3 -40z
m421 25 l33 -37 -38 -33 c-21 -18 -43 -33 -49 -33 -6 0 -22 16 -35 35 l-24 36
33 34 c19 19 37 35 41 35 4 0 22 -17 39 -37z m-4302 10 c6 -11 6 -28 0 -42 -8
-23 -10 -23 -25 -8 -14 13 -14 21 -5 42 14 30 18 31 30 8z m3982 -13 c10 -24
10 -33 0 -45 -17 -21 -25 -19 -38 10 -9 20 -9 30 0 45 17 27 23 25 38 -10z
m141 8 c10 -13 18 -28 19 -34 0 -11 -51 -64 -63 -64 -3 0 -14 14 -22 30 -15
29 -15 32 7 60 28 35 35 36 59 8z m-4211 -24 c0 -7 -5 -25 -10 -40 l-11 -28
-20 21 c-20 19 -20 22 -4 52 13 27 19 30 31 20 8 -6 14 -17 14 -25z m160 10
c0 -8 -4 -14 -10 -14 -5 0 -10 9 -10 21 0 11 5 17 10 14 6 -3 10 -13 10 -21z
m3726 -11 c-11 -11 -19 6 -11 24 8 17 8 17 12 0 3 -10 2 -21 -1 -24z m-4146
-49 c0 -7 -11 -25 -24 -40 -25 -30 -26 -30 -90 20 -20 17 -19 20 28 74 l20 22
33 -32 c18 -17 33 -38 33 -44z m130 51 c24 -26 24 -26 6 -60 -11 -19 -22 -35
-26 -35 -4 0 -17 11 -30 25 -24 26 -24 26 -6 60 11 19 22 35 26 35 4 0 17 -11
30 -25z m265 -55 c3 -11 2 -27 -3 -35 -12 -23 -33 4 -25 33 7 27 20 28 28 2z
m3785 -4 c0 -24 -16 -43 -27 -32 -8 8 6 56 17 56 6 0 10 -11 10 -24z m100 -20
c0 -6 -7 -20 -16 -31 -13 -17 -16 -18 -24 -5 -14 21 -12 54 2 68 10 10 15 9
25 -5 7 -9 13 -22 13 -27z m-3970 14 c11 -20 4 -70 -10 -70 -4 0 -15 8 -24 19
-14 15 -15 23 -5 45 15 31 25 33 39 6z m137 -2 c-3 -8 -6 -5 -6 6 -1 11 2 17
5 13 3 -3 4 -12 1 -19z m3654 -11 c-8 -8 -11 -7 -11 4 0 20 13 34 18 19 3 -7
-1 -17 -7 -23z m280 -50 c-22 -22 -22 -22 -37 -3 -18 26 -18 45 3 68 16 18 17
17 36 -12 l20 -32 -22 -21z m157 53 c12 -16 22 -33 22 -38 0 -10 -68 -77 -73
-71 -18 24 -37 61 -37 71 0 12 49 68 60 68 3 0 16 -13 28 -30z m-4334 -9 c17
-18 16 -21 -1 -55 l-19 -37 -23 25 c-22 23 -22 25 -7 55 19 36 27 38 50 12z
m-129 -82 c-10 -19 -19 -36 -21 -38 -6 -6 -64 51 -64 62 0 5 10 22 21 39 l22
30 29 -30 c30 -29 30 -29 13 -63z m365 15 c0 -27 -15 -32 -24 -9 -7 19 3 47
15 39 5 -3 9 -16 9 -30z m3681 -17 c-8 -8 -11 -4 -11 14 0 33 14 47 18 19 2
-12 -1 -27 -7 -33z m89 33 c11 -21 -1 -60 -19 -60 -15 0 -20 42 -8 61 15 23
14 23 27 -1z m-3846 -6 c9 -23 7 -64 -3 -64 -18 0 -33 30 -27 55 7 28 21 33
30 9z m3955 -11 c11 -24 9 -29 -13 -52 l-25 -25 -11 29 c-8 22 -7 33 5 51 20
31 29 30 44 -3z m-4039 -34 c0 -47 -21 -61 -51 -33 -17 15 -17 18 -2 50 16 32
18 33 35 17 10 -9 18 -24 18 -34z m4163 6 c16 -34 16 -34 -10 -55 l-27 -21
-17 33 c-17 32 -17 34 4 56 27 29 30 28 50 -13z m175 -9 c18 -24 32 -47 32
-50 0 -10 -90 -67 -98 -62 -5 3 -17 23 -27 46 l-18 40 39 35 c21 19 39 34 40
35 0 0 15 -20 32 -44z m-4471 2 c21 -22 21 -24 4 -57 l-18 -33 -27 24 -28 23
19 33 c22 38 24 38 50 10z m-118 -45 c5 -3 -17 -54 -34 -77 -14 -18 -16 -18
-55 8 -22 14 -40 29 -40 32 0 3 14 26 31 51 l31 45 32 -29 c17 -15 33 -29 35
-30z m461 -8 c-1 -19 -1 -19 -15 -2 -7 11 -11 26 -8 34 5 12 7 12 14 1 5 -7 9
-22 9 -33z m3659 -11 c-26 -32 -40 -2 -18 39 l12 21 9 -23 c5 -15 4 -28 -3
-37z m-3726 -5 c-5 -18 -8 -19 -20 -6 -10 10 -13 23 -8 38 7 21 8 21 20 5 7
-9 10 -26 8 -37z m3653 24 c-10 -10 -19 5 -10 18 6 11 8 11 12 0 2 -7 1 -15
-2 -18z m169 0 c4 -19 1 -32 -13 -46 -20 -19 -20 -19 -27 3 -7 22 11 70 26 70
4 0 10 -12 14 -27z m-3900 -40 c-3 -8 -5 -21 -5 -29 0 -12 -5 -12 -25 3 -28
21 -29 22 -14 60 l11 28 19 -24 c11 -13 17 -31 14 -38z m4007 -30 c-35 -30
-39 -29 -47 8 -6 24 -2 36 16 55 l23 25 18 -33 c17 -33 17 -33 -10 -55z
m-4123 43 c19 -21 20 -26 9 -52 -6 -16 -13 -31 -14 -32 -5 -8 -53 34 -54 45 0
17 22 63 30 63 4 0 16 -11 29 -24z m4287 -50 c6 -19 -19 -52 -44 -58 -7 -2
-21 16 -32 39 l-19 42 27 20 27 20 17 -22 c10 -12 20 -30 24 -41z m-4407 10
c10 -12 8 -23 -9 -56 l-21 -41 -29 18 c-35 20 -37 36 -10 81 16 27 23 31 38
23 10 -6 24 -17 31 -25z m365 -2 c3 -9 6 -25 6 -37 -1 -22 -1 -22 -15 -3 -17
22 -20 56 -6 56 5 0 12 -7 15 -16z m53 -6 c-3 -8 -6 -5 -6 6 -1 11 2 17 5 13
3 -3 4 -12 1 -19z m3573 8 c0 -7 -7 -19 -15 -26 -12 -10 -15 -9 -15 7 0 11 3
23 7 26 11 12 23 8 23 -7z m80 -15 c0 -18 -18 -41 -32 -41 -12 0 -9 45 4 58
14 14 28 6 28 -17z m-3782 -2 c7 -11 10 -29 7 -40 -6 -19 -8 -19 -24 -4 -12
10 -16 25 -13 40 5 30 13 31 30 4z m3891 -34 c0 -5 -11 -18 -24 -28 -25 -18
-25 -18 -35 9 -9 23 -7 31 12 51 l22 24 13 -23 c7 -13 12 -27 12 -33z m-3984
15 c14 -16 16 -26 9 -51 l-9 -31 -27 21 c-24 19 -26 25 -16 51 12 35 19 37 43
10z m4124 -55 c1 -5 -14 -20 -32 -33 l-32 -22 -17 37 -18 38 32 29 31 29 18
-34 c10 -19 18 -38 18 -44z m-4247 30 c15 -13 26 -30 23 -37 -2 -7 -9 -26 -15
-41 l-10 -28 -33 22 c-17 12 -33 23 -34 24 -5 3 32 85 37 85 3 -1 17 -11 32
-25z m3849 -32 c-10 -17 -10 -16 -11 3 0 23 13 41 18 25 2 -6 -1 -18 -7 -28z
m-3501 -4 c0 -11 -4 -17 -10 -14 -5 3 -10 15 -10 26 0 11 5 17 10 14 6 -3 10
-15 10 -26z m3580 12 c0 -10 -7 -24 -15 -31 -12 -10 -15 -10 -15 3 0 23 11 47
21 47 5 0 9 -8 9 -19z m464 -27 c14 -26 26 -50 26 -55 0 -9 -52 -39 -68 -39
-4 0 -18 21 -31 47 l-23 47 27 23 c14 13 30 23 35 23 4 0 20 -21 34 -46z
m-4104 -12 l0 -26 -21 21 c-14 13 -19 28 -15 38 9 25 36 0 36 -33z m3733 26
c6 -21 -16 -58 -34 -58 -18 0 -20 42 -3 61 22 25 30 24 37 -3z m-4169 -11 c28
-22 28 -23 13 -60 -9 -20 -21 -37 -27 -37 -18 0 -70 30 -70 40 0 13 41 80 48
80 4 0 20 -10 36 -23z m356 -39 c0 -31 -6 -34 -32 -14 -19 14 -22 33 -12 61 6
14 8 14 25 -1 11 -9 19 -30 19 -46z m3929 21 c15 -43 15 -42 -19 -62 -30 -18
-30 -18 -40 8 -13 35 -13 35 12 62 28 30 34 29 47 -8z m-4049 -7 c19 -16 22
-24 16 -55 -4 -20 -9 -37 -12 -37 -3 0 -19 9 -34 20 -26 19 -27 22 -17 55 12
40 16 42 47 17z m3766 -40 c-14 -14 -16 -14 -16 -1 0 20 23 44 29 28 2 -6 -4
-18 -13 -27z m437 -5 c9 -23 17 -45 17 -49 0 -12 -73 -49 -80 -41 -4 4 -13 26
-20 47 -12 38 -12 41 14 63 38 32 48 29 69 -20z m-343 10 c0 -13 -9 -32 -20
-42 -20 -18 -20 -17 -20 11 0 29 15 54 32 54 4 0 8 -11 8 -23z m-3999 -4 c16
-10 29 -26 29 -36 0 -15 -15 -53 -26 -66 -5 -6 -74 40 -74 50 0 14 29 69 36
69 3 0 19 -8 35 -17z m397 -13 c3 -21 2 -22 -12 -11 -19 16 -21 44 -3 39 6 -3
14 -15 15 -28z m-80 8 c7 -7 12 -25 12 -42 l0 -29 -24 22 c-15 14 -22 30 -19
42 6 22 14 24 31 7z m3786 -34 c8 -27 -41 -65 -55 -43 -15 25 -9 56 14 72 23
16 28 12 41 -29z m-3877 4 c15 -16 20 -31 16 -50 -6 -33 -13 -34 -43 -10 -18
15 -21 24 -15 50 8 38 15 39 42 10z m267 -4 c3 -8 2 -12 -4 -9 -6 3 -10 10
-10 16 0 14 7 11 14 -7z m3734 -21 c5 -16 13 -36 17 -45 5 -13 -2 -23 -27 -38
-18 -11 -36 -20 -39 -20 -4 0 -12 19 -18 43 -10 39 -9 43 15 65 33 29 40 28
52 -5z m-386 -5 c-7 -7 -12 -8 -12 -2 0 14 12 26 19 19 2 -3 -1 -11 -7 -17z
m88 -2 c0 -7 -9 -21 -20 -31 -19 -18 -20 -17 -20 6 0 27 18 51 32 43 4 -3 8
-11 8 -18z m-3828 -3 c26 -16 29 -22 24 -52 -3 -18 -7 -36 -10 -38 -3 -4 -62
22 -74 33 -5 3 20 74 26 74 2 0 17 -8 34 -17z m345 -5 c-3 -8 -6 -5 -6 6 -1
11 2 17 5 13 3 -3 4 -12 1 -19z m-47 -29 c0 -11 -4 -19 -9 -19 -16 0 -31 27
-25 44 8 21 34 2 34 -25z m3604 -30 c-23 -25 -31 -24 -37 7 -3 18 2 33 16 47
l21 21 9 -28 c7 -21 5 -32 -9 -47z m-3694 33 c17 -13 20 -24 15 -45 -8 -30
-13 -32 -37 -13 -18 14 -26 76 -9 76 5 0 19 -8 31 -18z m-320 -41 c0 -19 -23
-71 -31 -71 -6 0 -28 9 -49 20 l-40 20 20 40 20 40 40 -20 c22 -11 40 -24 40
-29z m4145 -11 c6 -31 3 -37 -23 -52 -17 -10 -32 -18 -35 -18 -3 0 -8 19 -12
41 -7 38 -5 44 21 64 32 26 38 22 49 -35z m269 24 c9 -20 15 -38 14 -40 -2 -2
-24 -12 -48 -23 l-45 -20 -12 22 c-21 37 -15 55 25 76 20 11 40 20 43 21 3 0
13 -16 23 -36z m-3884 -18 c0 -5 -7 -3 -15 4 -8 7 -15 20 -15 28 0 13 3 12 15
-4 8 -10 15 -23 15 -28z m3316 -14 c-15 -15 -16 -15 -16 4 0 28 24 52 28 28 2
-9 -3 -24 -12 -32z m-3629 19 c18 -15 22 -26 17 -50 -8 -36 -7 -36 -45 -14
-30 18 -33 24 -23 61 8 27 22 28 51 3z m253 -17 c0 -8 -4 -14 -10 -14 -5 0
-10 9 -10 21 0 11 5 17 10 14 6 -3 10 -13 10 -21z m3474 4 c4 -17 -1 -28 -17
-42 -22 -18 -22 -18 -25 8 -3 26 12 56 28 56 4 0 10 -10 14 -22z m-3546 -10
c7 -7 12 -25 12 -40 0 -28 -1 -28 -24 -13 -17 11 -22 22 -18 40 5 28 12 31 30
13z m-318 -15 c28 -16 31 -22 26 -52 -3 -18 -7 -35 -9 -38 -4 -3 -65 21 -85
34 -7 4 20 73 28 73 5 0 23 -8 40 -17z m3969 -54 c0 -9 -11 -21 -25 -28 -31
-14 -30 -15 -38 25 -6 27 -3 35 21 54 l28 22 6 -29 c4 -15 7 -35 8 -44z m239
39 c6 -17 11 -33 9 -34 -1 -1 -21 -11 -44 -23 l-42 -21 -7 37 c-4 22 -3 38 3
40 6 2 19 10 29 18 28 21 38 18 52 -17z m-3975 -16 c19 -17 21 -30 8 -50 -6
-10 -13 -11 -34 -1 -28 13 -31 19 -21 56 6 23 15 22 47 -5z m3474 6 c-3 -8 -6
-5 -6 6 -1 11 2 17 5 13 3 -3 4 -12 1 -19z m-3237 -30 c0 -4 -9 -3 -20 4 -11
7 -20 19 -20 27 0 11 5 10 20 -4 11 -10 20 -22 20 -27z m3310 9 c0 -12 -9 -28
-20 -35 -18 -11 -20 -10 -20 11 0 23 16 47 32 47 4 0 8 -10 8 -23z m-3380 -34
c0 -22 -2 -24 -15 -13 -8 7 -15 24 -15 37 0 22 2 24 15 13 8 -7 15 -24 15 -37z
m-293 16 c29 -18 34 -25 28 -48 -9 -36 -11 -37 -51 -17 -30 14 -35 21 -30 39
3 12 6 28 6 35 0 17 7 15 47 -9z m3987 -11 c3 -17 5 -33 3 -34 -10 -10 -77
-33 -77 -27 0 5 -3 18 -6 30 -5 17 1 26 27 42 44 27 45 27 53 -11z m-222 -9
c4 -24 -1 -34 -24 -50 l-28 -20 0 40 c0 28 5 43 18 50 26 16 29 14 34 -20z
m-3558 -2 c11 -8 17 -23 14 -40 -3 -27 -4 -27 -25 -12 -13 9 -23 27 -23 41 0
27 8 30 34 11z m169 -49 c6 -21 -16 -24 -31 -5 -5 6 -13 23 -17 36 l-7 24 25
-19 c14 -11 28 -27 30 -36z m3220 32 c-6 -22 -23 -38 -23 -21 0 17 12 41 20
41 5 0 6 -9 3 -20z m541 -12 c29 -71 29 -77 1 -88 -70 -27 -73 -26 -88 27
l-14 48 41 22 c22 12 42 22 44 23 2 0 9 -15 16 -32z m-4279 5 c19 -9 35 -24
35 -33 0 -16 -19 -80 -24 -80 -12 0 -96 33 -96 38 0 16 34 92 41 92 5 0 24 -8
44 -17z m273 -47 c6 -31 -13 -39 -48 -21 -21 11 -30 21 -26 31 3 9 6 22 6 31
0 12 5 12 32 -4 18 -11 34 -27 36 -37z m3742 40 c0 -8 2 -21 5 -28 4 -9 -7
-20 -29 -31 -34 -16 -35 -16 -42 5 -5 17 0 27 22 45 34 27 44 29 44 9z m-200
-25 c0 -20 -8 -35 -22 -46 -22 -15 -23 -14 -26 11 -3 24 21 64 40 64 4 0 8
-13 8 -29z m-3378 -16 c6 -14 8 -28 5 -31 -10 -11 -37 17 -37 37 0 27 18 23
32 -6z m3235 0 c-4 -8 -11 -15 -17 -15 -7 0 -7 6 0 21 13 23 26 19 17 -6z
m489 -36 c8 -24 14 -45 14 -45 0 -4 -92 -35 -95 -33 -2 2 -6 24 -10 49 -6 44
-6 46 27 62 18 9 37 16 42 14 5 -1 15 -22 22 -47z m-4035 25 c29 -14 30 -18
24 -57 -4 -23 -8 -43 -9 -44 -1 -1 -23 6 -49 15 -34 12 -46 21 -41 32 3 8 8
27 11 43 6 31 21 34 64 11z m214 -6 c18 -8 25 -19 25 -40 0 -28 0 -28 -30 -13
-21 11 -30 23 -30 40 0 29 0 29 35 13z m233 -13 c-3 -3 -9 2 -12 12 -6 14 -5
15 5 6 7 -7 10 -15 7 -18z m3157 -14 c-4 -18 -13 -31 -21 -31 -16 0 -11 33 9
58 15 19 20 8 12 -27z m185 16 c0 -16 -9 -28 -25 -35 -34 -16 -35 -16 -35 11
0 15 9 28 23 35 33 16 37 14 37 -11z m-3380 -43 c0 -18 -10 -18 -38 2 -12 8
-22 24 -22 35 0 20 0 20 30 -1 17 -12 30 -28 30 -36z m-305 12 c28 -12 35 -20
35 -43 0 -49 -12 -57 -55 -39 -31 13 -36 20 -31 38 3 13 6 31 6 41 0 21 2 21
45 3z m3809 -17 c10 -50 8 -54 -30 -68 -43 -15 -54 -6 -54 45 0 22 6 34 23 42
39 19 54 14 61 -19z m-3594 -20 c0 -32 -34 -20 -38 14 -3 26 -2 28 17 17 12
-6 21 -20 21 -31z m3211 7 c-6 -14 -18 -26 -26 -26 -17 0 -13 12 13 43 20 23
25 16 13 -17z m159 10 c0 -18 -8 -27 -30 -35 -22 -7 -30 -7 -30 2 0 17 12 32
35 45 26 15 25 16 25 -12z m-3220 -27 c0 -5 -4 -9 -10 -9 -5 0 -10 7 -10 16 0
8 5 12 10 9 6 -3 10 -10 10 -16z m-260 -4 c25 -13 30 -22 30 -50 0 -19 -2 -35
-4 -35 -1 0 -17 5 -35 11 -28 10 -31 15 -31 50 0 44 0 44 40 24z m3590 -25 c0
-34 -4 -42 -26 -50 -40 -15 -44 -13 -44 28 0 30 5 41 23 50 39 19 47 14 47
-28z m-3393 4 c31 -31 24 -41 -17 -24 -18 8 -30 20 -30 31 0 26 16 24 47 -7z
m3181 -15 c-19 -13 -28 -11 -28 6 0 21 34 38 38 18 2 -9 -2 -19 -10 -24z
m-3615 10 c37 -13 38 -14 31 -54 -3 -22 -9 -44 -14 -48 -12 -13 -100 13 -100
31 0 31 24 93 34 89 6 -2 28 -10 49 -18z m4106 -65 c1 -17 -8 -24 -45 -34 -50
-14 -62 -8 -65 38 -1 12 -2 27 -3 34 -1 7 19 20 44 29 l45 17 12 -32 c6 -17
12 -41 12 -52z m-633 49 c-10 -10 -19 5 -10 18 6 11 8 11 12 0 2 -7 1 -15 -2
-18z m-2911 7 c3 -5 1 -10 -4 -10 -6 0 -11 5 -11 10 0 6 2 10 4 10 3 0 8 -4
11 -10z m3148 -71 c-4 -4 -21 -11 -37 -15 -27 -6 -29 -5 -23 17 4 13 7 29 7
36 0 7 12 19 28 27 27 14 27 14 30 -21 2 -20 0 -39 -5 -44z m-3372 61 c13 -8
19 -21 19 -45 0 -33 -1 -34 -25 -23 -19 9 -25 19 -25 45 0 36 2 38 31 23z
m3209 -14 c0 -8 -7 -17 -16 -20 -30 -11 -37 -6 -19 14 21 23 35 26 35 6z
m-3425 -12 c37 -15 37 -16 31 -57 -4 -23 -8 -42 -9 -43 -1 -2 -21 3 -45 9 -44
12 -47 18 -36 76 7 36 9 36 59 15z m393 4 c14 -14 16 -28 2 -28 -5 0 -14 9
-20 20 -12 22 -1 27 18 8z m3446 -10 c3 -13 6 -35 6 -49 0 -23 -6 -28 -42 -37
-23 -6 -43 -10 -45 -9 -1 2 -5 21 -9 43 -6 40 -5 41 32 57 51 21 51 21 58 -5z
m-554 2 c0 -5 -5 -10 -11 -10 -5 0 -7 5 -4 10 3 6 8 10 11 10 2 0 4 -4 4 -10z
m-2937 -59 c3 -14 4 -27 2 -29 -1 -2 -19 4 -39 12 -30 13 -36 20 -36 45 l0 31
34 -17 c23 -10 36 -25 39 -42z m172 49 c3 -6 -1 -7 -9 -4 -18 7 -21 14 -7 14
6 0 13 -4 16 -10z m2963 -61 c-40 -26 -55 28 -15 56 21 15 22 15 25 -16 2 -19
-2 -35 -10 -40z m-3012 24 c-7 -7 -26 7 -26 19 0 6 6 6 15 -2 9 -7 13 -15 11
-17z m2854 7 c-8 -5 -17 -7 -19 -4 -3 3 1 9 9 14 8 5 17 7 19 4 3 -3 -1 -9 -9
-14z m-3206 0 c22 -8 26 -16 26 -50 0 -44 -2 -45 -49 -29 -28 10 -31 15 -31
50 0 42 9 47 54 29z m3596 -29 c0 -44 -1 -46 -47 -56 -33 -7 -33 -6 -33 33 0
35 4 42 28 50 47 18 52 15 52 -27z m-306 2 c-9 -38 -11 -40 -34 -46 -29 -7
-27 37 2 57 32 23 39 20 32 -11z m-3000 1 c9 -8 16 -24 16 -35 0 -17 -3 -18
-20 -9 -12 6 -20 21 -20 35 0 29 3 30 24 9z m142 -22 c-4 -3 -14 2 -24 12 -16
18 -16 18 6 6 13 -6 21 -14 18 -18z m-325 8 c25 -14 28 -86 3 -76 -9 3 -22 6
-30 6 -10 0 -14 12 -14 40 0 41 8 47 41 30z m3029 6 c0 -2 -7 -7 -16 -10 -8
-3 -12 -2 -9 4 6 10 25 14 25 6z m340 -34 c0 -36 -2 -38 -40 -49 -35 -9 -40
-8 -40 6 0 37 14 61 39 70 40 14 41 14 41 -27z m-3106 2 c9 -8 16 -22 16 -30
0 -22 -36 0 -43 26 -6 24 6 26 27 4z m2829 -1 c-6 -19 -32 -43 -45 -43 -8 0 0
29 15 48 15 19 37 15 30 -5z m-2980 -15 c21 -8 27 -16 27 -40 0 -28 -2 -29
-32 -23 -45 10 -45 10 -50 50 -3 29 -1 34 11 29 9 -3 28 -11 44 -16z m-340 -5
c28 -6 28 -7 22 -57 -4 -28 -8 -52 -10 -54 -1 -2 -24 1 -51 6 -48 8 -49 9 -47
42 5 69 12 83 36 76 12 -4 35 -9 50 -13z m3487 -13 c0 -24 -6 -33 -26 -40 -34
-13 -34 -13 -34 10 0 21 33 60 50 60 6 0 10 -14 10 -30z m373 23 c3 -5 8 -26
11 -49 l7 -40 -56 -11 c-53 -9 -56 -9 -61 13 -12 47 -1 68 41 80 50 15 53 16
58 7z m-3279 -29 c9 -8 16 -20 16 -25 0 -14 -17 -11 -34 7 -18 17 -21 34 -7
34 5 0 17 -7 25 -16z m2656 7 c0 -12 -29 -41 -41 -41 -14 0 -11 17 7 34 17 18
34 21 34 7z m154 -36 c-6 -23 -49 -53 -61 -41 -12 12 12 54 35 63 34 12 34 11
26 -22z m-3252 9 c5 -3 8 -27 8 -54 l0 -48 -42 10 c-24 5 -46 12 -49 16 -3 4
-4 27 -1 50 l4 44 37 -7 c20 -4 39 -9 43 -11z m294 8 c6 -4 14 -19 18 -34 6
-25 4 -27 -16 -19 -24 9 -45 61 -25 61 7 0 17 -4 23 -8z m3294 -31 c0 -45 -1
-46 -52 -55 l-38 -7 0 40 c0 34 4 41 28 49 53 20 62 16 62 -27z m-3072 -6 c-3
-3 -9 2 -12 12 -6 14 -5 15 5 6 7 -7 10 -15 7 -18z m2478 -3 c-18 -16 -18 -16
-6 6 6 13 14 21 18 18 3 -4 -2 -14 -12 -24z m-2883 1 c4 -2 7 -22 7 -44 0 -39
-1 -40 -32 -37 -32 3 -33 5 -36 51 -3 48 -3 48 25 41 15 -4 31 -9 36 -11z
m277 -3 c11 -11 20 -24 20 -30 0 -15 -27 -12 -44 6 -18 17 -21 44 -6 44 6 0
19 -9 30 -20z m2770 6 c0 -19 -27 -46 -46 -46 -20 0 -17 17 6 40 23 23 40 26
40 6z m300 -25 c0 -38 -1 -39 -41 -46 -48 -8 -53 -5 -44 33 5 27 34 45 78 51
4 1 7 -17 7 -38z m-527 4 c-3 -9 -8 -14 -10 -11 -3 3 -2 9 2 15 9 16 15 13 8
-4z m-2702 -16 c9 -5 19 -23 21 -40 l5 -31 -44 5 c-24 2 -45 6 -47 8 -2 2 -6
21 -9 42 l-6 38 32 -7 c18 -3 39 -10 48 -15z m257 -2 c19 -15 15 -37 -5 -30
-19 6 -43 32 -43 45 0 8 29 0 48 -15z m107 13 c3 -5 2 -10 -4 -10 -5 0 -13 5
-16 10 -3 6 -2 10 4 10 5 0 13 -4 16 -10z m2745 -24 c0 -28 -4 -35 -26 -40
-33 -9 -45 2 -38 31 5 18 22 30 62 42 1 1 2 -14 2 -33z m-279 5 c-11 -19 -51
-36 -51 -21 0 14 30 40 46 40 11 0 12 -4 5 -19z m179 -25 c0 -28 -3 -30 -42
-40 -25 -6 -28 -4 -28 18 0 17 8 27 28 34 40 15 42 14 42 -12z m-2902 -18 c7
-28 6 -33 -11 -36 -23 -4 -32 5 -41 41 -6 24 -4 27 19 27 19 0 26 -7 33 -32z
m226 17 c3 -8 1 -15 -3 -15 -5 0 -11 7 -15 15 -3 8 -1 15 3 15 5 0 11 -7 15
-15z m2401 -4 c-3 -6 -11 -11 -17 -11 -6 0 -6 6 2 15 14 17 26 13 15 -4z
m-2540 -14 c1 -1 7 -15 13 -31 12 -28 12 -28 -15 -21 -33 8 -38 13 -48 44 -7
22 -5 23 21 17 16 -4 29 -8 29 -9z m2706 -9 c-9 -24 -61 -45 -61 -25 0 25 25
44 57 46 9 1 10 -6 4 -21z m472 -35 c3 -31 4 -60 1 -65 -3 -4 -27 -8 -55 -8
l-49 0 0 59 c0 57 1 60 28 64 70 11 69 11 75 -50z m-3620 32 c25 -5 27 -9 27
-51 l0 -46 -31 6 c-17 3 -43 6 -57 6 -23 0 -24 2 -18 42 8 52 12 57 34 53 9
-2 29 -6 45 -10z m662 5 c3 -5 -1 -10 -9 -10 -8 0 -18 5 -21 10 -3 6 1 10 9
10 8 0 18 -4 21 -10z m2245 0 c0 -5 -5 -10 -11 -10 -5 0 -7 5 -4 10 3 6 8 10
11 10 2 0 4 -4 4 -10z m570 -60 l0 -60 -34 0 c-19 0 -41 -3 -50 -6 -13 -5 -16
1 -16 29 0 73 13 87 88 96 8 1 12 -17 12 -59z m-2924 25 c9 -14 15 -28 12 -30
-11 -11 -62 13 -69 33 -7 19 -5 22 16 22 15 0 31 -10 41 -25z m2494 5 c-6 -12
-21 -20 -36 -20 -22 0 -23 2 -14 20 6 12 21 20 36 20 22 0 23 -2 14 -20z
m-2916 4 c24 -9 22 -84 -1 -84 -50 1 -63 11 -63 51 0 35 3 39 24 39 13 0 31
-3 40 -6z m3212 -79 c-4 -17 -15 -24 -41 -27 -32 -4 -35 -2 -34 22 2 53 14 75
44 80 27 5 30 3 33 -24 2 -16 1 -39 -2 -51z m-2706 33 c0 -15 -28 -9 -34 8
-11 30 -6 37 14 19 11 -10 20 -22 20 -27z m2320 32 c0 -5 -9 -14 -20 -20 -22
-12 -27 -1 -8 18 14 14 28 16 28 2z m-2700 -9 c17 -5 26 -16 31 -39 6 -32 6
-32 -35 -32 -52 0 -62 7 -68 48 -4 29 -2 32 21 31 14 -1 37 -4 51 -8z m2976
-56 c-6 -29 -11 -33 -44 -38 -20 -2 -39 -3 -41 -1 -2 2 3 22 10 46 12 36 19
44 44 48 34 6 40 -4 31 -55z m-2505 19 c13 -15 12 -16 -11 -9 -33 10 -51 25
-44 36 6 11 35 -3 55 -27z m-349 3 c17 -27 8 -47 -21 -47 -28 0 -40 18 -41 59
0 16 50 6 62 -12z m2488 13 c0 -5 -7 -10 -16 -10 -8 0 -12 5 -9 10 3 6 10 10
16 10 5 0 9 -4 9 -10z m255 -32 c-10 -45 -10 -45 -50 -50 -29 -3 -34 -1 -29
11 3 9 11 28 16 44 8 21 16 27 40 27 28 0 29 -2 23 -32z m-2645 2 c28 -28 25
-40 -10 -40 -24 0 -33 6 -40 26 -13 34 -13 34 10 34 11 0 29 -9 40 -20z m336
-7 c-8 -8 -36 5 -36 17 0 7 6 7 21 0 11 -7 18 -14 15 -17z m1974 23 c0 -2 -7
-7 -16 -10 -8 -3 -12 -2 -9 4 6 10 25 14 25 6z m240 -1 c0 -3 -7 -21 -14 -40
-12 -29 -20 -35 -45 -35 -30 0 -30 0 -16 32 7 19 23 36 37 39 31 9 38 10 38 4z
m-2432 -42 c14 -22 13 -23 -21 -23 -33 0 -47 12 -47 41 0 19 53 4 68 -18z
m2312 -13 c-8 -18 -20 -30 -31 -30 -26 0 -24 16 7 47 31 31 41 24 24 -17z
m-2230 0 c9 -17 8 -20 -10 -20 -11 0 -20 2 -20 4 0 2 -3 11 -6 20 -9 24 23 20
36 -4z m2160 12 c0 -18 -33 -52 -51 -52 -20 0 -20 0 1 30 20 27 50 41 50 22z
m-2060 -28 c13 -12 13 -14 0 -14 -32 0 -60 13 -60 27 0 17 36 9 60 -13z m1959
-9 c-8 -7 -25 -16 -38 -20 l-24 -7 19 25 c20 27 46 39 53 24 2 -5 -3 -15 -10
-22z m-2585 13 c3 -7 7 -32 10 -55 l6 -43 -50 0 -50 0 0 55 0 55 40 0 c24 0
42 -5 44 -12z m145 -14 c5 -5 11 -26 14 -46 l6 -38 -60 0 -59 0 0 34 c0 19 -3
42 -7 52 -5 15 0 16 46 12 29 -3 56 -9 60 -14z m555 10 c9 -3 16 -10 16 -14 0
-10 -38 -1 -46 11 -6 10 7 12 30 3z m1794 -14 c-7 -11 -19 -20 -27 -20 -11 0
-10 5 4 20 10 11 22 20 27 20 4 0 3 -9 -4 -20z m832 -30 l0 -50 -56 0 -55 0 3
43 c3 44 5 45 96 56 8 1 12 -15 12 -49z m-3093 34 c12 -3 24 -16 27 -29 3 -13
9 -30 12 -39 5 -13 -1 -16 -34 -16 -36 0 -40 3 -46 31 -12 61 -8 66 41 53z
m101 -10 c23 -5 34 -14 41 -37 6 -16 11 -32 11 -33 0 -2 -17 -4 -38 -4 -36 0
-38 2 -49 40 -11 43 -11 43 35 34z m459 0 c-3 -3 -12 -4 -19 -1 -8 3 -5 6 6 6
11 1 17 -2 13 -5z m1613 -9 c-7 -8 -20 -15 -28 -15 -13 0 -12 3 4 15 25 19 40
19 24 0z m780 -2 c-1 -50 -11 -63 -51 -63 -35 0 -39 3 -39 24 0 45 10 56 51
56 31 0 39 -4 39 -17z m-2723 -3 c7 0 19 -13 28 -30 l16 -30 -41 0 c-34 0 -42
4 -50 26 -15 39 -12 47 13 40 12 -3 28 -6 34 -6z m2601 -22 c-3 -32 -5 -33
-51 -36 -48 -3 -48 -3 -41 25 10 42 12 43 55 43 39 0 40 -1 37 -32z m-2512 14
c6 -4 16 -17 23 -29 11 -21 9 -23 -13 -23 -18 0 -27 8 -35 30 -10 31 -1 39 25
22z m1759 -2 c-3 -5 -12 -10 -18 -10 -7 0 -6 4 3 10 19 12 23 12 15 0z m635 6
c0 -3 -4 -16 -10 -30 -8 -21 -16 -26 -45 -26 -37 0 -42 8 -25 41 8 13 21 19
45 19 19 0 35 -2 35 -4z m-2278 -23 c27 -24 22 -35 -13 -31 -19 2 -38 12 -47
26 -14 21 -13 22 13 22 16 0 37 -7 47 -17z m2156 -8 c-9 -19 -19 -25 -45 -25
-36 0 -38 2 -23 31 8 13 21 19 45 19 33 0 34 -1 23 -25z m-2060 3 c18 -18 14
-28 -11 -28 -12 0 -28 9 -35 20 -11 18 -10 20 11 20 13 0 28 -5 35 -12z m1872
4 c0 -14 -23 -32 -42 -32 -23 0 -23 16 0 29 21 13 42 14 42 3z m78 -9 c-2 -11
-14 -19 -31 -21 -26 -3 -28 -2 -17 17 13 26 53 29 48 4z m-1858 -8 c10 -12 9
-15 -8 -15 -11 0 -25 7 -32 15 -10 12 -9 15 8 15 11 0 25 -7 32 -15z m1680 0
c-7 -8 -24 -15 -37 -15 -22 0 -24 2 -13 15 7 8 24 15 37 15 22 0 24 -2 13 -15z
m-1605 -5 c3 -5 2 -10 -4 -10 -5 0 -13 5 -16 10 -3 6 -2 10 4 10 5 0 13 -4 16
-10z m1505 0 c0 -5 -9 -10 -21 -10 -11 0 -17 5 -14 10 3 6 13 10 21 10 8 0 14
-4 14 -10z m-93 -6 c-3 -3 -12 -4 -19 -1 -8 3 -5 6 6 6 11 1 17 -2 13 -5z
m-2162 -90 c3 -25 5 -47 3 -49 -2 -2 -30 -5 -63 -7 l-60 -3 -3 53 -3 52 59 0
60 0 7 -46z m114 15 c18 -52 15 -59 -28 -59 -45 0 -46 1 -55 53 l-7 37 40 0
c35 0 40 -3 50 -31z m120 0 c16 -47 15 -49 -28 -49 -44 0 -46 1 -56 48 -7 32
-6 32 33 32 36 0 41 -3 51 -31z m119 6 c18 -40 15 -45 -28 -45 -34 0 -42 4
-50 26 -15 40 -13 44 28 44 32 0 41 -5 50 -25z m86 3 c22 -30 20 -38 -7 -38
-20 0 -47 32 -47 55 0 15 41 1 54 -17z m116 3 c14 -27 14 -28 -21 -33 -24 -4
-34 1 -50 24 l-20 28 40 0 c30 0 43 -5 51 -19z m100 4 c15 -18 13 -22 -19 -27
-16 -2 -28 4 -38 20 -15 21 -14 22 15 22 16 0 35 -7 42 -15z m90 0 c21 -26
-18 -32 -43 -6 l-21 21 26 0 c14 0 31 -7 38 -15z m80 0 c10 -12 10 -15 -3 -15
-8 0 -20 7 -27 15 -10 12 -10 15 3 15 8 0 20 -7 27 -15z m85 5 c8 -13 -15 -13
-35 0 -12 8 -11 10 7 10 12 0 25 -4 28 -10z m1012 4 c-3 -3 -12 -4 -19 -1 -8
3 -5 6 6 6 11 1 17 -2 13 -5z m93 -4 c-20 -13 -43 -13 -35 0 3 6 16 10 28 10
18 0 19 -2 7 -10z m90 -5 c-13 -16 -40 -20 -40 -7 0 14 12 22 33 22 16 0 17
-3 7 -15z m100 6 c0 -16 -27 -31 -44 -25 -13 5 -14 9 -5 20 13 15 49 19 49 5z
m95 -15 c-11 -17 -22 -22 -40 -18 -14 2 -25 7 -25 11 0 16 26 31 52 31 28 0
28 -1 13 -24z m99 -1 c-14 -22 -64 -37 -64 -19 0 23 24 44 51 44 29 0 29 0 13
-25z m91 -5 c-11 -21 -23 -30 -40 -30 -29 0 -29 0 -13 35 8 18 19 25 40 25 28
0 28 0 13 -30z m125 26 c0 -1 -5 -17 -11 -35 -10 -28 -15 -31 -50 -31 -44 0
-44 0 -24 40 13 25 22 30 50 30 19 0 35 -2 35 -4z m120 -5 c0 -4 -5 -22 -11
-40 -10 -28 -15 -31 -50 -31 -42 0 -47 9 -29 54 8 22 16 26 50 26 22 0 40 -4
40 -9z m128 -33 c-5 -24 -12 -46 -16 -49 -4 -3 -27 -4 -50 -1 l-44 4 7 37 c10
50 10 51 65 51 l48 0 -10 -42z m126 -10 c-4 -29 -8 -55 -10 -57 -2 -2 -23 0
-46 5 -38 8 -43 12 -40 34 7 67 10 70 58 70 l45 0 -7 -52z m-1929 2 c3 -5 -1
-10 -9 -10 -9 0 -16 5 -16 10 0 6 4 10 9 10 6 0 13 -4 16 -10z m792 -5 c-11
-7 -26 -11 -34 -8 -12 5 -12 7 -1 14 7 5 22 9 33 9 19 -1 19 -1 2 -15z m-869
-12 c5 -18 -23 -16 -39 3 -11 14 -10 15 11 12 13 -1 25 -9 28 -15z m968 2
c-22 -17 -56 -20 -56 -6 0 12 19 19 50 20 24 0 24 0 6 -14z m-1062 -1 c9 -3
16 -10 16 -15 0 -15 -37 -10 -50 6 -10 12 -10 15 3 15 8 0 22 -3 31 -6z m1149
-15 c-13 -14 -28 -19 -38 -15 -25 9 0 36 33 36 l26 0 -21 -21z m-1313 -19 c14
-26 -35 -37 -61 -14 -25 22 -24 32 4 36 30 5 46 -1 57 -22z m88 18 c18 -18 14
-28 -11 -28 -13 0 -32 9 -42 20 -18 20 -17 20 11 20 17 0 35 -5 42 -12z m407
2 c3 -5 -1 -10 -9 -10 -8 0 -18 5 -21 10 -3 6 1 10 9 10 8 0 18 -4 21 -10z
m232 4 c-3 -3 -12 -4 -19 -1 -8 3 -5 6 6 6 11 1 17 -2 13 -5z m684 -18 c-14
-15 -30 -22 -42 -19 -37 10 -11 43 35 43 l29 0 -22 -24z m118 8 c9 -9 -34 -44
-55 -44 -31 0 -36 12 -17 39 12 18 21 21 42 16 14 -4 28 -8 30 -11z m-1639
-21 l22 -28 -29 -6 c-50 -12 -60 -9 -71 16 -15 34 -16 33 11 38 42 8 46 7 67
-20z m1067 21 c-3 -3 -12 -4 -19 -1 -8 3 -5 6 6 6 11 1 17 -2 13 -5z m661 -3
c10 -6 11 -13 1 -34 -12 -27 -28 -32 -62 -18 -17 6 -17 8 3 34 22 28 36 32 58
18z m-1848 -33 c10 -18 18 -33 17 -34 -1 0 -14 -4 -28 -7 -22 -6 -28 -2 -42
28 -12 25 -13 35 -4 39 26 10 38 5 57 -26z m655 22 c3 -6 -5 -10 -19 -10 -14
0 -28 5 -31 10 -3 6 5 10 19 10 14 0 28 -4 31 -10z m225 0 c0 -5 -4 -10 -9
-10 -6 0 -13 5 -16 10 -3 6 1 10 9 10 9 0 16 -4 16 -10z m155 0 c-3 -5 -10
-10 -16 -10 -5 0 -9 5 -9 10 0 6 7 10 16 10 8 0 12 -4 9 -10z m255 1 c0 -5 -6
-11 -12 -14 -19 -6 -49 4 -42 14 7 12 54 12 54 0z m665 -1 c10 -16 -25 -72
-41 -66 -9 3 -22 6 -30 6 -11 0 -11 6 3 35 17 35 53 48 68 25z m-2047 -25 c18
-40 14 -52 -19 -59 -50 -10 -54 -8 -68 30 -15 43 -6 54 45 54 23 0 34 -6 42
-25z m655 14 l21 -12 -23 -9 c-15 -5 -28 -4 -37 3 -32 26 -2 40 39 18z m814
-16 c-10 -10 -23 -13 -38 -8 -21 7 -21 8 -5 20 9 7 26 10 37 8 18 -5 19 -8 6
-20z m698 17 c3 -5 -1 -25 -9 -45 -15 -35 -17 -36 -53 -29 -21 4 -39 8 -41 9
-2 2 4 19 12 39 13 32 19 36 50 36 19 0 37 -4 41 -10z m-2292 -42 c9 -23 15
-44 12 -46 -2 -2 -24 -7 -48 -9 -42 -5 -45 -4 -51 23 -4 16 -9 37 -12 46 -3
11 2 18 18 21 58 11 65 8 81 -35z m1022 32 c3 -5 -3 -10 -14 -10 -12 0 -21 5
-21 10 0 6 6 10 14 10 8 0 18 -4 21 -10z m315 0 c0 -5 -9 -10 -21 -10 -11 0
-17 5 -14 10 3 6 13 10 21 10 8 0 14 -4 14 -10z m1085 -2 c2 -2 -2 -22 -8 -46
-12 -44 -18 -47 -76 -36 -36 7 -36 9 -15 59 15 36 17 37 55 32 23 -3 42 -7 44
-9z m-2548 -48 c7 -24 10 -47 5 -51 -4 -4 -25 -10 -48 -14 l-40 -6 -10 55
c-12 62 -9 66 46 63 31 -2 35 -6 47 -47z m823 35 c10 -12 9 -16 -5 -21 -19 -8
-46 5 -53 24 -5 17 43 15 58 -3z m485 5 c-3 -5 -12 -10 -20 -10 -8 0 -17 5
-20 10 -4 6 5 10 20 10 15 0 24 -4 20 -10z m518 3 c14 -13 -23 -40 -48 -35
-30 5 -31 10 -7 28 19 15 45 18 55 7z m836 1 c31 -7 32 -7 25 -53 -3 -25 -9
-49 -13 -54 -7 -7 -97 6 -107 15 -2 3 1 26 8 52 13 49 21 53 87 40z m-1934
-24 c20 -22 19 -25 -11 -34 -28 -9 -66 30 -44 44 22 14 35 12 55 -10z m339 14
c9 -3 16 -10 16 -16 0 -14 -53 -5 -58 10 -4 13 16 16 42 6z m490 -3 c9 -14
-18 -31 -42 -24 -12 3 -22 9 -22 13 0 17 55 26 64 11z m-324 -21 c0 -16 -21
-22 -36 -9 -11 9 -12 14 -3 20 14 8 39 1 39 -11z m150 -6 c-12 -13 -40 -9 -40
6 0 11 22 18 38 12 9 -3 10 -8 2 -18z m550 19 c0 -5 -7 -16 -14 -25 -14 -19
-33 -22 -61 -12 -14 6 -14 8 1 25 16 18 74 27 74 12z m-1298 -27 c17 -24 17
-24 -14 -35 -17 -6 -32 -11 -33 -11 -2 0 -10 12 -20 26 -14 22 -15 28 -4 35
24 15 54 9 71 -15z m351 9 c18 -13 18 -14 -2 -25 -15 -8 -27 -8 -41 0 -31 17
-24 31 20 39 3 0 13 -6 23 -14z m677 -4 c0 -26 -43 -38 -70 -21 -13 8 -12 11
4 23 18 13 66 12 66 -2z m379 3 c2 -2 -4 -15 -14 -30 -14 -22 -22 -25 -48 -20
-42 9 -44 12 -17 41 18 19 29 23 49 18 14 -3 28 -7 30 -9z m-1511 -34 l22 -29
-38 -10 c-52 -15 -56 -14 -75 18 -22 37 -22 39 6 44 50 10 64 6 85 -23z m620
-6 c-15 -8 -29 -9 -40 -3 -39 21 -3 44 40 25 l23 -10 -23 -12z m337 16 c3 -4
-2 -13 -10 -20 -12 -10 -21 -10 -46 0 -31 13 -31 13 -8 25 22 12 55 10 64 -5z
m663 5 c7 -6 -32 -65 -43 -65 -23 0 -55 13 -55 22 0 5 7 20 16 34 14 21 22 24
48 18 17 -3 33 -8 34 -9z m-1254 -14 c16 -18 16 -19 -10 -25 -31 -8 -74 21
-52 36 21 13 44 9 62 -11z m410 13 c13 -5 14 -9 5 -20 -15 -18 -33 -18 -48 0
-10 11 -8 15 6 19 10 3 19 5 20 6 1 0 9 -2 17 -5z m454 -4 c13 0 11 -5 -9 -25
-22 -23 -29 -25 -55 -15 l-29 12 24 19 c13 11 31 17 38 14 8 -3 22 -5 31 -5z
m-1355 -38 c22 -38 22 -37 -19 -46 -29 -7 -33 -4 -47 31 -14 35 -14 39 2 45
28 12 44 4 64 -30z m1846 22 c3 -2 -3 -20 -12 -40 -16 -33 -20 -35 -50 -29
-17 4 -34 9 -36 11 -2 1 7 19 19 39 19 31 26 36 49 30 14 -4 28 -9 30 -11z
m-1450 -18 l22 -23 -31 -13 c-17 -7 -32 -11 -33 -9 -1 2 -11 14 -21 26 -19 22
-18 23 5 32 34 14 33 14 58 -13z m-496 -22 c20 -41 17 -49 -20 -57 -16 -3 -35
-8 -44 -12 -12 -4 -20 5 -32 37 -22 56 -22 56 11 61 63 9 68 8 85 -29z m766
22 c10 -12 8 -17 -8 -25 -25 -14 -32 -14 -56 5 -17 13 -18 16 -5 24 22 14 56
12 69 -4z m520 -2 c3 -3 -4 -14 -15 -25 -18 -17 -24 -18 -47 -8 -31 14 -34 24
-9 38 15 10 60 6 71 -5z m264 7 c17 -6 17 -8 -3 -33 -18 -24 -24 -26 -50 -16
-35 12 -36 15 -13 40 17 19 36 22 66 9z m525 -6 c1 -1 -6 -23 -17 -47 l-19
-46 -41 11 c-45 12 -49 23 -25 68 14 29 18 30 57 24 23 -4 43 -8 45 -10z
m-1154 -1 c22 -8 20 -21 -4 -34 -14 -8 -26 -7 -42 1 -21 11 -21 12 -3 25 21
16 27 17 49 8z m170 -6 c20 -9 23 -14 15 -25 -15 -17 -40 -17 -65 2 -16 13
-17 16 -4 25 19 13 24 12 54 -2z m-1223 -49 l17 -44 -32 -12 c-59 -22 -72 -17
-86 32 -15 52 -13 54 32 65 47 11 51 9 69 -41z m526 29 c30 -28 29 -34 -8 -47
-43 -15 -42 -15 -62 19 -18 30 -18 30 5 39 34 14 39 13 65 -11z m1806 2 c13
-12 -13 -100 -31 -100 -31 0 -93 24 -89 34 2 6 10 28 18 49 13 37 14 38 54 31
22 -3 44 -9 48 -14z m-1538 -6 c32 -21 31 -28 -2 -43 -24 -11 -29 -9 -52 13
l-25 25 25 10 c13 5 25 10 27 10 1 1 14 -6 27 -15z m1012 2 c3 -3 -4 -18 -16
-35 -20 -28 -24 -29 -54 -19 -43 15 -42 14 -22 44 15 23 22 25 52 21 20 -4 38
-8 40 -11z m-303 -2 c20 -8 20 -23 0 -45 -15 -17 -18 -17 -50 -2 -32 16 -33
18 -17 35 17 19 39 23 67 12z m-1085 -30 c12 -15 21 -30 21 -34 0 -5 -20 -15
-45 -24 l-46 -15 -19 32 c-11 18 -20 35 -20 39 0 5 53 23 82 27 4 1 16 -11 27
-25z m554 12 c23 -18 22 -22 -13 -36 -24 -10 -33 -10 -45 0 -20 17 -19 25 8
38 28 14 29 14 50 -2z m197 -25 c0 -5 -10 -15 -23 -24 -20 -13 -25 -12 -56 8
l-33 23 28 15 c25 13 32 13 56 1 16 -8 28 -18 28 -23z m156 19 l28 -11 -21
-20 c-19 -20 -22 -20 -52 -4 -27 13 -30 19 -20 31 14 17 28 18 65 4z m591 -4
c5 -5 -23 -63 -35 -70 -12 -7 -72 16 -72 27 0 4 8 19 18 33 14 20 23 24 51 20
18 -3 36 -7 38 -10z m-1209 -19 l22 -23 -35 -17 c-34 -16 -34 -16 -55 12 -24
35 -25 38 -2 44 35 10 49 6 70 -16z m905 6 c23 -7 22 -15 -8 -43 -22 -20 -27
-22 -55 -10 -36 15 -36 17 -8 47 14 15 28 21 38 17 8 -3 23 -9 33 -11z m-1319
-38 c11 -19 17 -36 15 -38 -10 -8 -62 -27 -64 -25 -1 2 -12 22 -24 45 -19 39
-19 42 -3 46 44 12 58 6 76 -28z m1733 22 c3 -4 -21 -65 -34 -85 -4 -7 -73 20
-73 28 0 5 8 23 18 40 15 28 21 31 51 26 18 -3 35 -7 38 -9z m-1428 -78 c-47
-25 -54 -24 -78 14 l-21 32 38 17 37 18 29 -32 29 -31 -34 -18z m284 63 c15
-17 15 -19 -14 -36 -31 -18 -31 -18 -53 3 -21 22 -21 22 -2 37 26 19 50 18 69
-4z m191 -17 c20 -15 20 -15 0 -30 -35 -27 -55 -28 -80 -4 -30 28 -30 31 3 51
28 17 37 15 77 -17z m354 17 l33 -18 -25 -23 c-23 -22 -25 -22 -55 -7 -36 19
-37 23 -14 48 19 22 20 22 61 0z m-1239 -40 l22 -43 -36 -14 c-65 -28 -75 -25
-94 27 l-18 46 51 15 c28 8 52 14 52 13 1 0 11 -20 23 -44z m1061 30 l30 -19
-24 -22 c-26 -24 -45 -23 -81 5 -20 15 -20 15 5 34 31 24 33 24 70 2z m479 -4
c25 -9 24 -10 -17 -60 -13 -16 -16 -16 -50 0 -21 9 -39 17 -41 19 -2 1 7 15
20 32 24 30 31 31 88 9z m400 1 c17 -6 31 -12 31 -13 0 -12 -33 -96 -38 -96
-16 0 -92 34 -92 41 0 5 8 24 17 44 18 37 31 41 82 24z m-1329 -59 c0 -3 -16
-14 -35 -23 -34 -16 -34 -16 -55 10 l-21 27 33 17 c32 17 34 17 56 -4 12 -11
22 -23 22 -27z m-311 11 c12 -16 21 -33 21 -38 0 -7 -76 -43 -92 -43 -10 0
-49 72 -43 79 8 8 66 29 82 30 6 1 21 -12 32 -28z m1063 -1 c4 -3 -3 -18 -15
-34 l-23 -29 -30 19 c-16 10 -31 19 -33 21 -3 2 6 14 18 27 20 21 27 23 50 13
14 -6 29 -13 33 -17z m-589 -5 c33 -29 33 -32 5 -56 -30 -24 -37 -24 -70 8
-35 33 -35 39 0 57 35 19 32 20 65 -9z m870 14 c12 -7 24 -13 26 -15 6 -5 -40
-74 -50 -74 -14 0 -69 29 -69 36 0 3 8 19 17 35 18 31 41 36 76 18z m-658 -33
c20 -16 19 -16 -13 -46 l-33 -30 -34 27 c-19 16 -35 30 -35 33 0 3 15 15 32
27 32 23 41 21 83 -11z m175 19 c36 -19 37 -25 6 -54 -25 -24 -45 -23 -80 4
-19 15 -19 15 4 40 28 29 32 30 70 10z m-673 -77 c-45 -36 -73 -32 -98 13 -8
15 -2 21 33 37 l43 20 22 -27 23 -26 -23 -17z m-317 21 c12 -23 20 -42 18 -44
-10 -9 -70 -36 -73 -33 -2 2 -13 24 -24 48 l-20 45 22 12 c38 21 56 15 77 -28z
m1281 21 c33 -17 38 -24 30 -39 -20 -36 -38 -44 -71 -31 -47 19 -53 33 -29 64
11 14 23 26 25 26 3 0 23 -9 45 -20z m304 8 c30 -14 31 -18 5 -68 l-20 -40
-40 20 -40 20 20 40 c22 42 34 47 75 28z m-1070 -38 l29 -31 -29 -24 c-17 -13
-35 -24 -41 -25 -16 0 -80 72 -68 77 6 2 20 10 30 18 29 22 47 18 79 -15z
m578 4 c18 -9 34 -18 36 -20 6 -6 -51 -64 -62 -64 -5 0 -22 10 -39 21 l-29 21
27 29 c33 34 27 33 67 13z m-375 -37 l23 -24 -33 -25 -33 -26 -40 34 c-22 18
-37 34 -35 37 67 52 73 52 118 4z m195 10 l29 -19 -33 -34 c-18 -19 -35 -34
-38 -34 -4 0 -22 14 -41 30 l-35 29 35 29 c19 17 40 27 45 24 6 -3 23 -14 38
-25z m-714 -6 c12 -16 21 -31 21 -34 0 -7 -90 -57 -101 -57 -10 0 -45 68 -38
74 7 7 84 45 91 46 4 0 16 -13 27 -29z m1201 4 c17 -9 30 -20 30 -26 0 -17
-30 -69 -40 -69 -11 0 -80 40 -80 47 0 11 42 63 51 63 6 0 23 -7 39 -15z
m-1000 -37 c16 -18 29 -37 29 -43 1 -9 -71 -65 -83 -65 -6 0 -66 85 -66 94 0
6 70 45 83 46 4 0 21 -15 37 -32z m811 0 c22 -12 39 -24 39 -28 0 -8 -50 -80
-56 -80 -3 0 -25 14 -50 31 l-45 30 28 34 c15 18 32 34 37 34 4 1 26 -9 47
-21z m-600 -34 l34 -35 -38 -35 c-21 -19 -42 -32 -47 -29 -5 3 -22 23 -39 44
l-30 38 37 27 c20 14 39 26 42 26 4 0 22 -16 41 -36z m405 2 c30 -25 30 -26
-20 -90 -17 -20 -20 -19 -74 28 l-22 20 32 33 c38 39 48 40 84 9z m-206 -15
l35 -29 -35 -36 -34 -36 -38 37 -38 37 27 28 c33 35 41 35 83 -1z"/>
</g>
</svg>
